<svg width="350" height="224" viewBox="0 0 350 224" fill="none" xmlns="http://www.w3.org/2000/svg">
<circle cx="100" cy="112" r="100" fill="#171818"/>
<circle cx="250" cy="112" r="100" fill="#171818"/>
<path d="M145.43 89.3594L141.281 92.1016C138.75 88.3516 135.445 85.3984 131.367 83.2422C127.336 81.0391 122.953 79.9375 118.219 79.9375C110.531 79.9375 103.969 82.6562 98.5312 88.0938C93.0938 93.5312 90.375 100.094 90.375 107.781C90.375 115.469 93.0938 122.031 98.5312 127.469C103.969 132.906 110.531 135.625 118.219 135.625C122.953 135.625 127.336 134.523 131.367 132.32C135.445 130.117 138.75 127.141 141.281 123.391L145.359 126.344C142.359 130.75 138.469 134.242 133.688 136.82C128.906 139.398 123.75 140.688 118.219 140.688C113.766 140.688 109.5 139.82 105.422 138.086C101.391 136.352 97.8984 134.008 94.9453 131.055C91.9922 128.102 89.6484 124.609 87.9141 120.578C86.1797 116.5 85.3125 112.234 85.3125 107.781C85.3125 103.328 86.1797 99.0859 87.9141 95.0547C89.6484 90.9766 91.9922 87.4609 94.9453 84.5078C97.8984 81.5547 101.391 79.2109 105.422 77.4766C109.5 75.7422 113.766 74.875 118.219 74.875C123.797 74.875 128.977 76.1875 133.758 78.8125C138.539 81.3906 142.43 84.9062 145.43 89.3594ZM153.797 83.5938L149.578 86.3359C146.109 81.2734 141.609 77.2656 136.078 74.3125C130.594 71.3125 124.641 69.8125 118.219 69.8125C111.328 69.8125 104.977 71.5234 99.1641 74.9453C93.3516 78.3203 88.7344 82.9141 85.3125 88.7266C81.9375 94.5391 80.25 100.891 80.25 107.781C80.25 114.672 81.9375 121.023 85.3125 126.836C88.7344 132.648 93.3516 137.266 99.1641 140.688C104.977 144.062 111.328 145.75 118.219 145.75C124.641 145.75 130.617 144.25 136.148 141.25C141.68 138.25 146.18 134.195 149.648 129.086L153.797 131.969C149.859 137.781 144.75 142.375 138.469 145.75C132.234 149.125 125.484 150.812 118.219 150.812C110.438 150.812 103.242 148.891 96.6328 145.047C90.0234 141.203 84.7969 135.977 80.9531 129.367C77.1094 122.758 75.1875 115.562 75.1875 107.781C75.1875 100 77.1094 92.8047 80.9531 86.1953C84.7969 79.5859 90.0234 74.3594 96.6328 70.5156C103.242 66.6719 110.438 64.75 118.219 64.75C125.484 64.75 132.234 66.4375 138.469 69.8125C144.75 73.1875 149.859 77.7812 153.797 83.5938ZM162.234 77.9688L158.016 80.7109C153.609 74.2422 147.891 69.1328 140.859 65.3828C133.875 61.5859 126.328 59.6875 118.219 59.6875C111.703 59.6875 105.469 60.9531 99.5156 63.4844C93.5625 66.0156 88.4297 69.4375 84.1172 73.75C79.8516 78.0156 76.4531 83.125 73.9219 89.0781C71.3906 95.0312 70.125 101.266 70.125 107.781C70.125 114.297 71.3906 120.531 73.9219 126.484C76.4531 132.438 79.8516 137.57 84.1172 141.883C88.4297 146.148 93.5625 149.547 99.5156 152.078C105.469 154.609 111.703 155.875 118.219 155.875C126.375 155.875 133.945 153.977 140.93 150.18C147.914 146.383 153.609 141.25 158.016 134.781L162.094 137.805C157.219 144.93 150.914 150.578 143.18 154.75C135.492 158.875 127.172 160.938 118.219 160.938C108.609 160.938 99.7266 158.57 91.5703 153.836C83.4141 149.055 76.9453 142.586 72.1641 134.43C67.4297 126.273 65.0625 117.391 65.0625 107.781C65.0625 98.1719 67.4297 89.2891 72.1641 81.1328C76.9453 72.9766 83.4141 66.5312 91.5703 61.7969C99.7266 57.0156 108.609 54.625 118.219 54.625C127.219 54.625 135.586 56.7344 143.32 60.9531C151.055 65.125 157.359 70.7969 162.234 77.9688ZM170.531 72.2031L166.312 74.9453C160.969 67.1172 154.055 60.9297 145.57 56.3828C137.133 51.8359 128.016 49.5625 118.219 49.5625C110.344 49.5625 102.797 51.1094 95.5781 54.2031C88.4062 57.25 82.2188 61.375 77.0156 66.5781C71.8125 71.7812 67.6641 77.9922 64.5703 85.2109C61.5234 92.3828 60 99.9062 60 107.781C60 115.656 61.5234 123.203 64.5703 130.422C67.6641 137.594 71.8125 143.781 77.0156 148.984C82.2188 154.188 88.4062 158.336 95.5781 161.43C102.797 164.477 110.344 166 118.219 166C128.016 166 137.156 163.703 145.641 159.109C154.125 154.516 161.039 148.305 166.383 140.477L170.461 143.57C164.648 152.008 157.148 158.711 147.961 163.68C138.773 168.602 128.859 171.062 118.219 171.062C109.641 171.062 101.438 169.375 93.6094 166C85.8281 162.672 79.1016 158.195 73.4297 152.57C67.8047 146.898 63.3047 140.172 59.9297 132.391C56.6016 124.562 54.9375 116.359 54.9375 107.781C54.9375 99.2031 56.6016 91.0234 59.9297 83.2422C63.3047 75.4141 67.8047 68.6875 73.4297 63.0625C79.1016 57.3906 85.8281 52.8906 93.6094 49.5625C101.438 46.1875 109.641 44.5 118.219 44.5C128.906 44.5 138.844 46.9844 148.031 51.9531C157.219 56.9219 164.719 63.6719 170.531 72.2031ZM257.648 125.43C257.648 123.602 257.086 122.383 255.961 121.773C254.883 121.164 253.289 120.859 251.18 120.859H218.555V115.797H251.18C258.867 115.797 262.711 119.008 262.711 125.43C262.711 129.039 261.656 131.641 259.547 133.234C257.438 134.828 254.648 135.625 251.18 135.625H218.555V130.562H251.18C255.492 130.562 257.648 128.852 257.648 125.43ZM215.742 166H210.68V79.9375H251.18C254.367 79.9375 257.086 80.9219 259.336 82.8906C261.586 84.8125 262.711 87.2266 262.711 90.1328C262.711 93.9766 261.656 96.7656 259.547 98.5C257.438 100.188 254.648 101.031 251.18 101.031H218.555V95.9688H251.18C255.492 95.9688 257.648 94.0234 257.648 90.1328C257.648 88.5391 257.039 87.2969 255.82 86.4062C254.602 85.4688 253.055 85 251.18 85H215.742V166ZM218.555 106.094H251.18C255.82 106.094 259.734 104.711 262.922 101.945C266.156 99.1328 267.773 95.1953 267.773 90.1328C267.773 86.0547 266.086 82.4922 262.711 79.4453C259.383 76.3984 255.539 74.875 251.18 74.875H205.617V166H200.555V69.8125H251.18C256.945 69.8125 261.984 71.8516 266.297 75.9297C270.656 79.9609 272.836 84.6953 272.836 90.1328C272.836 94.3984 271.828 98.125 269.812 101.312C267.844 104.5 265.172 106.961 261.797 108.695C269.156 111.32 272.836 116.664 272.836 124.727C272.836 131.102 270.727 136.211 266.508 140.055C262.289 143.852 257.18 145.75 251.18 145.75H218.555V140.688H251.18C255.82 140.688 259.734 139.305 262.922 136.539C266.156 133.727 267.773 129.789 267.773 124.727C267.773 121.305 266.555 118.281 264.117 115.656C261.68 113.031 258.094 111.508 253.359 111.086C252.891 111.133 252.164 111.156 251.18 111.156H218.555V106.094ZM282.961 90.1328C282.961 96.6953 280.641 102.625 276 107.922C280.641 113.078 282.961 118.68 282.961 124.727C282.961 130.586 281.484 135.93 278.531 140.758C275.625 145.539 271.734 149.266 266.859 151.938C262.031 154.562 256.805 155.875 251.18 155.875H218.555V150.812H251.18C258.492 150.812 264.773 148.375 270.023 143.5C275.273 138.578 277.898 132.32 277.898 124.727C277.898 122.008 277.195 119.008 275.789 115.727C274.43 112.398 272.531 109.867 270.094 108.133C275.297 103.258 277.898 97.2578 277.898 90.1328C277.898 83.2891 275.227 77.3594 269.883 72.3438C264.539 67.2812 258.305 64.75 251.18 64.75H195.492V166H190.43V59.6875H251.18C256.758 59.6875 261.984 61.0703 266.859 63.8359C271.781 66.5547 275.695 70.2812 278.602 75.0156C281.508 79.7031 282.961 84.7422 282.961 90.1328ZM281.766 108.203C285.938 102.625 288.023 96.6016 288.023 90.1328C288.023 83.8047 286.336 77.9219 282.961 72.4844C279.633 67 275.133 62.6641 269.461 59.4766C263.789 56.2422 257.695 54.625 251.18 54.625H185.367V166H180.305V49.5625H251.18C258.586 49.5625 265.5 51.3906 271.922 55.0469C278.391 58.7031 283.523 63.6719 287.32 69.9531C291.164 76.1875 293.086 82.9141 293.086 90.1328C293.086 97.0234 291.141 103.07 287.25 108.273C291.141 113.664 293.086 119.148 293.086 124.727C293.086 131.008 291.961 136.773 289.711 142.023C287.461 147.227 284.414 151.562 280.57 155.031C276.773 158.5 272.344 161.195 267.281 163.117C262.219 165.039 256.852 166 251.18 166H218.555V160.938H251.18C256.102 160.938 260.812 160.023 265.312 158.195C269.812 156.32 273.727 153.789 277.055 150.602C280.383 147.414 283.031 143.57 285 139.07C287.016 134.57 288.023 129.789 288.023 124.727C288.023 122.477 287.484 119.781 286.406 116.641C285.375 113.453 283.828 110.641 281.766 108.203Z" fill="#A76AF3"/>
</svg>
