<svg width="527" height="56" viewBox="0 0 527 56" fill="none" xmlns="http://www.w3.org/2000/svg">
<path d="M19.8457 25.4062L18.8262 26.1797C17.8066 24.9141 16.4941 24.2812 14.8887 24.2812C13.4941 24.2812 12.2988 24.7793 11.3027 25.7754C10.3184 26.7598 9.82617 27.9492 9.82617 29.3438C9.82617 30.7383 10.3184 31.9336 11.3027 32.9297C12.2988 33.9141 13.4941 34.4062 14.8887 34.4062C15.6738 34.4062 16.4062 34.2363 17.0859 33.8965C17.7773 33.5566 18.3633 33.0879 18.8438 32.4902L19.8281 33.3164C19.2422 34.0547 18.5156 34.6348 17.6484 35.0566C16.7812 35.4668 15.8613 35.6719 14.8887 35.6719C13.1426 35.6719 11.6484 35.0566 10.4062 33.8262C9.17578 32.584 8.56055 31.0898 8.56055 29.3438C8.56055 27.5977 9.17578 26.1094 10.4062 24.8789C11.6484 23.6367 13.1426 23.0156 14.8887 23.0156C15.873 23.0156 16.7988 23.2324 17.666 23.666C18.5332 24.0879 19.2598 24.668 19.8457 25.4062ZM21.8145 23.8242L20.8125 24.5977C20.1094 23.707 19.2363 23.0098 18.1934 22.5059C17.1621 22.002 16.0605 21.75 14.8887 21.75C12.791 21.75 10.998 22.4941 9.50977 23.9824C8.0332 25.4707 7.29492 27.2578 7.29492 29.3438C7.29492 31.4297 8.0332 33.2168 9.50977 34.7051C10.998 36.1934 12.791 36.9375 14.8887 36.9375C16.0605 36.9375 17.168 36.6855 18.2109 36.1816C19.2539 35.666 20.127 34.9629 20.8301 34.0723L21.7969 34.8809C20.9766 35.9121 19.9629 36.7266 18.7559 37.3242C17.5488 37.9102 16.2598 38.2031 14.8887 38.2031C13.2832 38.2031 11.8008 37.8105 10.4414 37.0254C9.08203 36.2285 8.00391 35.1504 7.20703 33.791C6.42188 32.4316 6.0293 30.9492 6.0293 29.3438C6.0293 27.7383 6.42188 26.2559 7.20703 24.8965C8.00391 23.5371 9.08203 22.4648 10.4414 21.6797C11.8008 20.8828 13.2832 20.4844 14.8887 20.4844C16.2598 20.4844 17.5488 20.7832 18.7559 21.3809C19.9746 21.9668 20.9941 22.7812 21.8145 23.8242ZM23.8008 22.2422L22.8164 23.0332C21.8672 21.8496 20.7012 20.918 19.3184 20.2383C17.9355 19.5586 16.459 19.2188 14.8887 19.2188C13.5176 19.2188 12.2051 19.4883 10.9512 20.0273C9.70898 20.5547 8.63086 21.2754 7.7168 22.1895C6.81445 23.0918 6.09375 24.1699 5.55469 25.4238C5.02734 26.666 4.76367 27.9727 4.76367 29.3438C4.76367 30.7148 5.02734 32.0273 5.55469 33.2812C6.09375 34.5234 6.81445 35.6016 7.7168 36.5156C8.63086 37.418 9.70898 38.1387 10.9512 38.6777C12.2051 39.2051 13.5176 39.4688 14.8887 39.4688C16.459 39.4688 17.9355 39.1289 19.3184 38.4492C20.7012 37.7695 21.8672 36.8379 22.8164 35.6543L23.7656 36.4805C22.6992 37.8047 21.3926 38.8477 19.8457 39.6094C18.2988 40.3594 16.6465 40.7344 14.8887 40.7344C13.3418 40.7344 11.8652 40.4355 10.459 39.8379C9.05273 39.2285 7.83984 38.4199 6.82031 37.4121C5.8125 36.3926 5.00391 35.1797 4.39453 33.7734C3.79688 32.3672 3.49805 30.8906 3.49805 29.3438C3.49805 27.7969 3.79688 26.3203 4.39453 24.9141C5.00391 23.5078 5.8125 22.3008 6.82031 21.293C7.83984 20.2734 9.05273 19.4648 10.459 18.8672C11.8652 18.2578 13.3418 17.9531 14.8887 17.9531C16.6582 17.9531 18.3164 18.334 19.8633 19.0957C21.4219 19.8574 22.7344 20.9062 23.8008 22.2422ZM25.7695 20.6602L24.75 21.416C23.5664 19.9512 22.1133 18.7969 20.3906 17.9531C18.6797 17.1094 16.8457 16.6875 14.8887 16.6875C13.1777 16.6875 11.5371 17.0215 9.9668 17.6895C8.4082 18.3574 7.06055 19.2598 5.92383 20.3965C4.79883 21.5215 3.90234 22.8691 3.23438 24.4395C2.56641 25.998 2.23242 27.6328 2.23242 29.3438C2.23242 31.0547 2.56641 32.6953 3.23438 34.2656C3.90234 35.8242 4.79883 37.1719 5.92383 38.3086C7.06055 39.4336 8.4082 40.3301 9.9668 40.998C11.5371 41.666 13.1777 42 14.8887 42C16.8457 42 18.6797 41.5781 20.3906 40.7344C22.1133 39.8906 23.5664 38.7363 24.75 37.2715L25.752 38.0449C24.4512 39.6621 22.8516 40.9395 20.9531 41.877C19.0664 42.8027 17.0449 43.2656 14.8887 43.2656C13.002 43.2656 11.1973 42.8965 9.47461 42.1582C7.76367 41.4199 6.28711 40.4297 5.04492 39.1875C3.80273 37.9453 2.8125 36.4688 2.07422 34.7578C1.33594 33.0352 0.966797 31.2305 0.966797 29.3438C0.966797 27.457 1.33594 25.6582 2.07422 23.9473C2.8125 22.2246 3.80273 20.7422 5.04492 19.5C6.28711 18.2578 7.76367 17.2676 9.47461 16.5293C11.1973 15.791 13.002 15.4219 14.8887 15.4219C17.0449 15.4219 19.0723 15.8906 20.9707 16.8281C22.8691 17.7539 24.4688 19.0312 25.7695 20.6602ZM323.525 29.2031L323.49 29.1855C324.814 27.8965 325.477 26.3262 325.477 24.4746C325.477 22.7168 324.82 21.1934 323.508 19.9043C322.207 18.6035 320.666 17.9531 318.885 17.9531H304.963V42H303.697V16.6875H318.885C320.268 16.6875 321.562 17.0449 322.77 17.7598C323.988 18.4629 324.955 19.418 325.67 20.625C326.385 21.8203 326.742 23.1035 326.742 24.4746C326.742 26.3496 326.238 27.9609 325.23 29.3086C326.238 30.7031 326.742 32.2383 326.742 33.9141C326.742 35.5195 326.379 36.9375 325.652 38.168C324.926 39.3867 323.971 40.3066 322.787 40.9277C321.615 41.5488 320.314 41.8594 318.885 41.8594H310.887V40.5938H318.885C320.689 40.5938 322.236 39.9551 323.525 38.6777C324.826 37.3887 325.477 35.8008 325.477 33.9141C325.477 33.0469 325.289 32.1914 324.914 31.3477C324.539 30.5039 324.07 29.7949 323.508 29.2207C323.508 29.209 323.514 29.2031 323.525 29.2031ZM318.885 35.5312H310.887V36.7969H318.885C319.658 36.7969 320.314 36.5391 320.854 36.0234C321.404 35.4961 321.68 34.793 321.68 33.9141C321.68 33.1523 321.398 32.4844 320.836 31.9102C320.273 31.3242 319.623 31.0312 318.885 31.0312H310.869V32.2969H318.885C319.283 32.2969 319.635 32.4609 319.939 32.7891C320.256 33.1172 320.414 33.4922 320.414 33.9141C320.414 34.4297 320.268 34.8281 319.975 35.1094C319.682 35.3906 319.318 35.5312 318.885 35.5312ZM318.885 38.0625H310.887V39.3281H318.885C320.338 39.3281 321.586 38.8125 322.629 37.7812C323.684 36.7383 324.211 35.4492 324.211 33.9141C324.211 32.9414 323.947 32.0273 323.42 31.1719C322.904 30.3047 322.219 29.6367 321.363 29.168C322.219 28.7227 322.904 28.0898 323.42 27.2695C323.947 26.4375 324.211 25.5059 324.211 24.4746C324.211 23.0684 323.678 21.8438 322.611 20.8008C321.557 19.7461 320.314 19.2188 318.885 19.2188H306.229V42H307.494V20.4844H318.885C319.963 20.4844 320.906 20.8887 321.715 21.6973C322.535 22.4941 322.945 23.4199 322.945 24.4746C322.945 25.6465 322.547 26.6133 321.75 27.375C320.953 28.125 319.998 28.5 318.885 28.5H315.018H310.887V29.7656H315.018H318.885C319.963 29.7656 320.906 30.1816 321.715 31.0137C322.535 31.8457 322.945 32.8125 322.945 33.9141C322.945 35.1328 322.547 36.1289 321.75 36.9023C320.953 37.6758 319.998 38.0625 318.885 38.0625ZM318.885 25.9688H310.887V27.2344H318.885C319.67 27.2344 320.332 26.9883 320.871 26.4961C321.41 25.9922 321.68 25.3184 321.68 24.4746C321.68 23.7598 321.398 23.127 320.836 22.5762C320.273 22.0254 319.623 21.75 318.885 21.75H308.76V42H310.025V23.0156H318.885C319.283 23.0156 319.635 23.168 319.939 23.4727C320.256 23.7656 320.414 24.0996 320.414 24.4746C320.414 24.9551 320.268 25.3242 319.975 25.582C319.682 25.8398 319.318 25.9688 318.885 25.9688Z" fill="#A76AF3"/>
<path d="M53.5078 16.6875H54.7734V42H53.5078V16.6875ZM28.1777 16.6875H29.4434V42H28.1777V16.6875ZM50.9766 16.6875H52.2422V42H50.9766V16.6875ZM48.4453 16.6875H49.7109V42H48.4453V16.6875ZM45.9141 16.6875H47.1797V42H45.9141V31.875H37.0371V42H35.7715V16.6875H37.0371V25.5469H45.9141V16.6875ZM33.2402 16.6875H34.5059V42H33.2402V16.6875ZM30.709 16.6875H31.9746V42H30.709V16.6875ZM45.9141 30.6094V29.3438H37.0371V30.6094H45.9141ZM45.9141 28.0781V26.8125H37.0371V28.0781H45.9141ZM67.6582 29.9062H75.2871C76.2949 29.9062 77.1504 29.5898 77.8535 28.957C78.5566 28.3242 78.9082 27.4336 78.9082 26.2852C78.9082 25.4414 78.5391 24.6855 77.8008 24.0176C77.0742 23.3496 76.2363 23.0156 75.2871 23.0156H64.4238V42H63.1582V21.75H75.2871C76.5879 21.75 77.7246 22.207 78.6973 23.1211C79.6816 24.0352 80.1738 25.0898 80.1738 26.2852C80.1738 27.7734 79.6992 28.9629 78.75 29.8535C77.8008 30.7324 76.6465 31.1719 75.2871 31.1719H67.6582V29.9062ZM67.6582 32.4375H75.2871C76.9746 32.4375 78.4219 31.8633 79.6289 30.7148C80.8359 29.5664 81.4395 28.0898 81.4395 26.2852C81.4395 24.75 80.8242 23.4023 79.5938 22.2422C78.3633 21.0703 76.9277 20.4844 75.2871 20.4844H61.8926V42H60.627V19.2188H75.2871C77.2793 19.2188 79.0137 19.9277 80.4902 21.3457C81.9668 22.752 82.7051 24.3984 82.7051 26.2852C82.7051 28.3945 81.9727 30.1582 80.5078 31.5762C79.0547 32.9941 77.3145 33.7031 75.2871 33.7031H67.6582V32.4375ZM67.6582 34.9688H75.2871C76.8457 34.9688 78.2871 34.5938 79.6113 33.8438C80.9355 33.0938 81.9902 32.0508 82.7754 30.7148C83.5723 29.3789 83.9707 27.9023 83.9707 26.2852C83.9707 24.8203 83.5781 23.4492 82.793 22.1719C82.0078 20.8828 80.9414 19.8574 79.5938 19.0957C78.2578 18.334 76.8223 17.9531 75.2871 17.9531H59.3613V42H58.0957V16.6875H75.2871C76.6113 16.6875 77.8828 16.9512 79.1016 17.4785C80.332 17.9941 81.3926 18.6855 82.2832 19.5527C83.1738 20.4082 83.8887 21.4277 84.4277 22.6113C84.9668 23.7949 85.2363 25.0195 85.2363 26.2852C85.2363 28.3359 84.7676 30.1289 83.8301 31.6641C82.8926 33.1875 81.6328 34.3477 80.0508 35.1445L82.7051 42H81.3516L78.8379 35.6543C78.5215 35.7598 78.1523 35.8652 77.7305 35.9707L80.1035 42H78.75L76.4297 36.1816C76.0664 36.2168 75.6855 36.2344 75.2871 36.2344L77.5195 42H76.1836L73.9688 36.2344H72.8262L74.9531 42H73.6172L71.4727 36.2344H67.6582V34.9688ZM66.9551 42H65.6895V24.2812H75.2871C75.9434 24.2812 76.5 24.4805 76.957 24.8789C77.4141 25.2656 77.6426 25.7344 77.6426 26.2852C77.6426 27.8555 76.8574 28.6406 75.2871 28.6406H67.6582V27.375H75.2871C76.0137 27.375 76.377 27.0117 76.377 26.2852C76.377 26.0859 76.2656 25.916 76.043 25.7754C75.832 25.623 75.5801 25.5469 75.2871 25.5469H66.9551V42ZM95.6426 16.6875H96.9082V42H95.6426V16.6875ZM93.1113 16.6875H94.377V42H93.1113V16.6875ZM90.5801 16.6875H91.8457V42H90.5801V16.6875ZM88.0488 16.6875H89.3145V42H88.0488V16.6875ZM111.85 29.959H109.846C107.385 29.959 105.492 29.4609 104.168 28.4648C102.844 27.457 102.182 26.0742 102.182 24.3164C102.182 22.6758 102.961 21.3105 104.52 20.2207C106.078 19.1191 108.264 18.5684 111.076 18.5684C112.951 18.5684 114.697 18.8262 116.314 19.3418C117.943 19.8574 119.297 20.584 120.375 21.5215L119.391 22.3125C118.43 21.5273 117.223 20.918 115.77 20.4844C114.316 20.0508 112.752 19.834 111.076 19.834C108.604 19.834 106.711 20.2559 105.398 21.0996C104.098 21.9434 103.447 23.0156 103.447 24.3164C103.447 25.7227 103.98 26.8066 105.047 27.5684C106.125 28.3184 107.725 28.6934 109.846 28.6934H111.779C114.275 28.6934 116.186 29.1973 117.51 30.2051C118.846 31.2012 119.514 32.5781 119.514 34.3359C119.514 35.9766 118.734 37.3477 117.176 38.4492C115.617 39.5391 113.432 40.084 110.619 40.084C108.744 40.084 106.992 39.8262 105.363 39.3105C103.746 38.7949 102.398 38.0684 101.32 37.1309L102.305 36.3398C103.266 37.125 104.473 37.7344 105.926 38.168C107.379 38.6016 108.943 38.8184 110.619 38.8184C113.092 38.8184 114.979 38.3965 116.279 37.5527C117.592 36.709 118.248 35.6367 118.248 34.3359C118.248 32.9297 117.709 31.8516 116.631 31.1016C115.564 30.3398 113.971 29.959 111.85 29.959ZM111.85 32.4902H109.846C106.588 32.4902 104.074 31.752 102.305 30.2754C100.535 28.7871 99.6504 26.8008 99.6504 24.3164C99.6504 23.1797 99.9023 22.1133 100.406 21.1172C100.91 20.1211 101.631 19.248 102.568 18.498C103.518 17.7363 104.725 17.1387 106.189 16.7051C107.654 16.2598 109.283 16.0371 111.076 16.0371C113.338 16.0371 115.453 16.3828 117.422 17.0742C119.391 17.7539 121.031 18.709 122.344 19.9395L121.324 20.6953C120.129 19.6172 118.635 18.7852 116.842 18.1992C115.049 17.6016 113.127 17.3027 111.076 17.3027C107.912 17.3027 105.428 17.9707 103.623 19.3066C101.818 20.6426 100.916 22.3125 100.916 24.3164C100.916 26.4375 101.689 28.1191 103.236 29.3613C104.783 30.6035 106.986 31.2246 109.846 31.2246H111.779C115.248 31.2246 116.982 32.2617 116.982 34.3359C116.982 35.2734 116.449 36.0469 115.383 36.6562C114.328 37.2539 112.74 37.5527 110.619 37.5527C109.131 37.5527 107.748 37.3828 106.471 37.043C105.193 36.6914 104.139 36.1934 103.307 35.5488L104.309 34.7754C105.773 35.7832 107.877 36.2871 110.619 36.2871C112.377 36.2871 113.666 36.1055 114.486 35.7422C115.307 35.3789 115.717 34.9102 115.717 34.3359C115.717 33.668 115.43 33.1934 114.855 32.9121C114.281 32.6309 113.279 32.4902 111.85 32.4902ZM111.85 27.4277H109.846C106.424 27.4277 104.713 26.3906 104.713 24.3164C104.713 23.3789 105.24 22.6113 106.295 22.0137C107.361 21.4043 108.955 21.0996 111.076 21.0996C112.564 21.0996 113.947 21.2754 115.225 21.627C116.502 21.9668 117.557 22.459 118.389 23.1035L117.387 23.877C115.922 22.8691 113.818 22.3652 111.076 22.3652C109.318 22.3652 108.029 22.5469 107.209 22.9102C106.389 23.2734 105.979 23.7422 105.979 24.3164C105.979 24.9844 106.266 25.459 106.84 25.7402C107.414 26.0215 108.416 26.1621 109.846 26.1621H111.85C115.107 26.1621 117.621 26.9062 119.391 28.3945C121.16 29.8711 122.045 31.8516 122.045 34.3359C122.045 35.4727 121.793 36.5391 121.289 37.5352C120.785 38.5312 120.059 39.4102 119.109 40.1719C118.172 40.9219 116.971 41.5195 115.506 41.9648C114.041 42.3984 112.412 42.6152 110.619 42.6152C108.357 42.6152 106.242 42.2754 104.273 41.5957C102.305 40.9043 100.664 39.9434 99.3516 38.7129L100.371 37.957C101.566 39.0352 103.061 39.873 104.854 40.4707C106.646 41.0566 108.568 41.3496 110.619 41.3496C113.783 41.3496 116.268 40.6816 118.072 39.3457C119.877 38.0098 120.779 36.3398 120.779 34.3359C120.779 32.2148 120.006 30.5332 118.459 29.291C116.912 28.0488 114.709 27.4277 111.85 27.4277ZM129.305 23.7012H130.57V42H129.305V23.7012ZM124.242 17.9531V16.6875H143.227V17.9531H124.242ZM124.242 20.4844V19.2188H143.227V20.4844H124.242ZM124.242 23.0156V21.75H143.227V23.0156H124.242ZM136.898 23.7012H138.164V42H136.898V23.7012ZM134.367 23.7012H135.633V42H134.367V23.7012ZM131.836 23.7012H133.102V42H131.836V23.7012ZM155.689 25.7754C154.705 26.7598 154.213 27.9492 154.213 29.3438C154.213 30.7383 154.705 31.9336 155.689 32.9297C156.686 33.9141 157.881 34.4062 159.275 34.4062C160.67 34.4062 161.859 33.9141 162.844 32.9297C163.84 31.9336 164.338 30.7383 164.338 29.3438C164.338 27.9492 163.84 26.7598 162.844 25.7754C161.859 24.7793 160.67 24.2812 159.275 24.2812C157.881 24.2812 156.686 24.7793 155.689 25.7754ZM154.793 33.8262C153.562 32.584 152.947 31.0898 152.947 29.3438C152.947 27.5977 153.562 26.1094 154.793 24.8789C156.035 23.6367 157.529 23.0156 159.275 23.0156C161.021 23.0156 162.51 23.6367 163.74 24.8789C164.982 26.1094 165.604 27.5977 165.604 29.3438C165.604 31.0898 164.982 32.584 163.74 33.8262C162.51 35.0566 161.021 35.6719 159.275 35.6719C157.529 35.6719 156.035 35.0566 154.793 33.8262ZM153.896 23.9824C152.42 25.4707 151.682 27.2578 151.682 29.3438C151.682 31.4297 152.42 33.2168 153.896 34.7051C155.385 36.1934 157.178 36.9375 159.275 36.9375C161.373 36.9375 163.16 36.1934 164.637 34.7051C166.125 33.2168 166.869 31.4297 166.869 29.3438C166.869 27.2578 166.125 25.4707 164.637 23.9824C163.16 22.4941 161.373 21.75 159.275 21.75C157.178 21.75 155.385 22.4941 153.896 23.9824ZM151.594 33.791C150.809 32.4316 150.416 30.9492 150.416 29.3438C150.416 27.7383 150.809 26.2559 151.594 24.8965C152.391 23.5371 153.469 22.4648 154.828 21.6797C156.188 20.8828 157.67 20.4844 159.275 20.4844C160.881 20.4844 162.363 20.8828 163.723 21.6797C165.082 22.4648 166.154 23.5371 166.939 24.8965C167.736 26.2559 168.135 27.7383 168.135 29.3438C168.135 30.9492 167.736 32.4316 166.939 33.791C166.154 35.1504 165.082 36.2285 163.723 37.0254C162.363 37.8105 160.881 38.2031 159.275 38.2031C157.67 38.2031 156.188 37.8105 154.828 37.0254C153.469 36.2285 152.391 35.1504 151.594 33.791ZM149.941 25.4238C149.414 26.666 149.15 27.9727 149.15 29.3438C149.15 30.7148 149.414 32.0273 149.941 33.2812C150.48 34.5234 151.201 35.6016 152.104 36.5156C153.018 37.418 154.096 38.1387 155.338 38.6777C156.592 39.2051 157.904 39.4688 159.275 39.4688C160.646 39.4688 161.953 39.2051 163.195 38.6777C164.449 38.1387 165.527 37.418 166.43 36.5156C167.344 35.6016 168.064 34.5234 168.592 33.2812C169.131 32.0273 169.4 30.7148 169.4 29.3438C169.4 27.9727 169.131 26.666 168.592 25.4238C168.064 24.1699 167.344 23.0918 166.43 22.1895C165.527 21.2754 164.449 20.5547 163.195 20.0273C161.953 19.4883 160.646 19.2188 159.275 19.2188C157.904 19.2188 156.592 19.4883 155.338 20.0273C154.096 20.5547 153.018 21.2754 152.104 22.1895C151.201 23.0918 150.48 24.1699 149.941 25.4238ZM148.781 33.7734C148.184 32.3672 147.885 30.8906 147.885 29.3438C147.885 27.7969 148.184 26.3203 148.781 24.9141C149.391 23.5078 150.199 22.3008 151.207 21.293C152.227 20.2734 153.439 19.4648 154.846 18.8672C156.252 18.2578 157.729 17.9531 159.275 17.9531C160.822 17.9531 162.299 18.2578 163.705 18.8672C165.111 19.4648 166.318 20.2734 167.326 21.293C168.346 22.3008 169.154 23.5078 169.752 24.9141C170.361 26.3203 170.666 27.7969 170.666 29.3438C170.666 30.8906 170.361 32.3672 169.752 33.7734C169.154 35.1797 168.346 36.3926 167.326 37.4121C166.318 38.4199 165.111 39.2285 163.705 39.8379C162.299 40.4355 160.822 40.7344 159.275 40.7344C157.729 40.7344 156.252 40.4355 154.846 39.8379C153.439 39.2285 152.227 38.4199 151.207 37.4121C150.199 36.3926 149.391 35.1797 148.781 33.7734ZM147.621 24.4395C146.953 25.998 146.619 27.6328 146.619 29.3438C146.619 31.0547 146.953 32.6953 147.621 34.2656C148.289 35.8242 149.186 37.1719 150.311 38.3086C151.447 39.4336 152.795 40.3301 154.354 40.998C155.924 41.666 157.564 42 159.275 42C160.986 42 162.621 41.666 164.18 40.998C165.75 40.3301 167.098 39.4336 168.223 38.3086C169.359 37.1719 170.262 35.8242 170.93 34.2656C171.598 32.6953 171.932 31.0547 171.932 29.3438C171.932 27.6328 171.598 25.998 170.93 24.4395C170.262 22.8691 169.359 21.5215 168.223 20.3965C167.098 19.2598 165.75 18.3574 164.18 17.6895C162.621 17.0215 160.986 16.6875 159.275 16.6875C157.564 16.6875 155.924 17.0215 154.354 17.6895C152.795 18.3574 151.447 19.2598 150.311 20.3965C149.186 21.5215 148.289 22.8691 147.621 24.4395ZM146.461 34.7578C145.723 33.0352 145.354 31.2305 145.354 29.3438C145.354 27.457 145.723 25.6582 146.461 23.9473C147.199 22.2246 148.189 20.7422 149.432 19.5C150.674 18.2578 152.15 17.2676 153.861 16.5293C155.584 15.791 157.389 15.4219 159.275 15.4219C161.162 15.4219 162.961 15.791 164.672 16.5293C166.395 17.2676 167.877 18.2578 169.119 19.5C170.361 20.7422 171.352 22.2246 172.09 23.9473C172.828 25.6582 173.197 27.457 173.197 29.3438C173.197 31.2305 172.828 33.0352 172.09 34.7578C171.352 36.4688 170.361 37.9453 169.119 39.1875C167.877 40.4297 166.395 41.4199 164.672 42.1582C162.961 42.8965 161.162 43.2656 159.275 43.2656C157.389 43.2656 155.584 42.8965 153.861 42.1582C152.15 41.4199 150.674 40.4297 149.432 39.1875C148.189 37.9453 147.199 36.4688 146.461 34.7578ZM185.871 30.082H191.232C192.287 30.082 193.184 29.7656 193.922 29.1328C194.66 28.5 195.029 27.6094 195.029 26.4609C195.029 25.5703 194.643 24.7734 193.869 24.0703C193.096 23.3672 192.217 23.0156 191.232 23.0156H182.373V42H181.107V21.75H191.232C192.58 21.75 193.758 22.2246 194.766 23.1738C195.785 24.123 196.295 25.2188 196.295 26.4609C196.295 27.9492 195.803 29.1387 194.818 30.0293C193.834 30.9082 192.639 31.3477 191.232 31.3477H185.871V30.082ZM185.871 32.6133H191.232C192.967 32.6133 194.455 32.0391 195.697 30.8906C196.939 29.7422 197.561 28.2656 197.561 26.4609C197.561 24.8789 196.928 23.4902 195.662 22.2949C194.396 21.0879 192.92 20.4844 191.232 20.4844H179.842V42H178.576V19.2188H191.232C193.271 19.2188 195.047 19.9453 196.559 21.3984C198.07 22.8398 198.826 24.5273 198.826 26.4609C198.826 28.5703 198.076 30.334 196.576 31.752C195.088 33.1699 193.307 33.8789 191.232 33.8789H185.871V32.6133ZM185.871 35.1445H191.232C192.814 35.1445 194.279 34.7695 195.627 34.0195C196.986 33.2695 198.07 32.2266 198.879 30.8906C199.688 29.5547 200.092 28.0781 200.092 26.4609C200.092 24.9727 199.688 23.5723 198.879 22.2598C198.082 20.9473 196.998 19.9043 195.627 19.1309C194.268 18.3457 192.803 17.9531 191.232 17.9531H177.311V42H176.045V16.6875H191.232C192.568 16.6875 193.857 16.9512 195.1 17.4785C196.354 18.0059 197.438 18.7148 198.352 19.6055C199.266 20.4844 199.992 21.5273 200.531 22.7344C201.082 23.9297 201.357 25.1719 201.357 26.4609C201.357 27.9727 201.088 29.3613 200.549 30.627C200.01 31.8926 199.277 32.9473 198.352 33.791C197.426 34.623 196.348 35.2676 195.117 35.7246C193.898 36.1816 192.604 36.4102 191.232 36.4102H185.871V35.1445ZM184.904 42H183.639V24.2812H191.232C191.924 24.2812 192.516 24.498 193.008 24.9316C193.512 25.3535 193.764 25.8633 193.764 26.4609C193.764 28.0312 192.92 28.8164 191.232 28.8164H185.871V27.5508H191.232C192.076 27.5508 192.498 27.1875 192.498 26.4609C192.498 26.2031 192.375 25.9863 192.129 25.8105C191.883 25.6348 191.584 25.5469 191.232 25.5469H184.904V42ZM229.535 16.6875H230.801V42H229.535V16.6875ZM204.205 16.6875H205.471V42H204.205V16.6875ZM227.004 16.6875H228.27V42H227.004V16.6875ZM224.473 16.6875H225.738V42H224.473V16.6875ZM221.941 16.6875H223.207V42H221.941V31.875H213.064V42H211.799V16.6875H213.064V25.5469H221.941V16.6875ZM209.268 16.6875H210.533V42H209.268V16.6875ZM206.736 16.6875H208.002V42H206.736V16.6875ZM221.941 30.6094V29.3438H213.064V30.6094H221.941ZM221.941 28.0781V26.8125H213.064V28.0781H221.941ZM240.451 42H239.186V16.6875H240.451V42ZM237.92 42H236.654V16.6875H237.92V42ZM235.389 42H234.123V16.6875H235.389V42ZM242.982 35.6719H255.094V36.9375H242.982V38.2031H255.094V39.4688H242.982V40.7344H255.094V42H241.717V16.6875H255.094V17.9531H242.982V19.2188H255.094V20.4844H242.982V21.75H255.094V23.0156H242.982V26.1621H254.391V27.4277H242.982V28.6934H254.391V29.959H242.982V31.2246H254.391V32.4902H242.982V35.6719ZM267.697 29.9062H275.326C276.334 29.9062 277.189 29.5898 277.893 28.957C278.596 28.3242 278.947 27.4336 278.947 26.2852C278.947 25.4414 278.578 24.6855 277.84 24.0176C277.113 23.3496 276.275 23.0156 275.326 23.0156H264.463V42H263.197V21.75H275.326C276.627 21.75 277.764 22.207 278.736 23.1211C279.721 24.0352 280.213 25.0898 280.213 26.2852C280.213 27.7734 279.738 28.9629 278.789 29.8535C277.84 30.7324 276.686 31.1719 275.326 31.1719H267.697V29.9062ZM267.697 32.4375H275.326C277.014 32.4375 278.461 31.8633 279.668 30.7148C280.875 29.5664 281.479 28.0898 281.479 26.2852C281.479 24.75 280.863 23.4023 279.633 22.2422C278.402 21.0703 276.967 20.4844 275.326 20.4844H261.932V42H260.666V19.2188H275.326C277.318 19.2188 279.053 19.9277 280.529 21.3457C282.006 22.752 282.744 24.3984 282.744 26.2852C282.744 28.3945 282.012 30.1582 280.547 31.5762C279.094 32.9941 277.354 33.7031 275.326 33.7031H267.697V32.4375ZM267.697 34.9688H275.326C276.885 34.9688 278.326 34.5938 279.65 33.8438C280.975 33.0938 282.029 32.0508 282.814 30.7148C283.611 29.3789 284.01 27.9023 284.01 26.2852C284.01 24.8203 283.617 23.4492 282.832 22.1719C282.047 20.8828 280.98 19.8574 279.633 19.0957C278.297 18.334 276.861 17.9531 275.326 17.9531H259.4V42H258.135V16.6875H275.326C276.65 16.6875 277.922 16.9512 279.141 17.4785C280.371 17.9941 281.432 18.6855 282.322 19.5527C283.213 20.4082 283.928 21.4277 284.467 22.6113C285.006 23.7949 285.275 25.0195 285.275 26.2852C285.275 28.3359 284.807 30.1289 283.869 31.6641C282.932 33.1875 281.672 34.3477 280.09 35.1445L282.744 42H281.391L278.877 35.6543C278.561 35.7598 278.191 35.8652 277.77 35.9707L280.143 42H278.789L276.469 36.1816C276.105 36.2168 275.725 36.2344 275.326 36.2344L277.559 42H276.223L274.008 36.2344H272.865L274.992 42H273.656L271.512 36.2344H267.697V34.9688ZM266.994 42H265.729V24.2812H275.326C275.982 24.2812 276.539 24.4805 276.996 24.8789C277.453 25.2656 277.682 25.7344 277.682 26.2852C277.682 27.8555 276.896 28.6406 275.326 28.6406H267.697V27.375H275.326C276.053 27.375 276.416 27.0117 276.416 26.2852C276.416 26.0859 276.305 25.916 276.082 25.7754C275.871 25.623 275.619 25.5469 275.326 25.5469H266.994V42ZM337.236 16.6875H338.502V42H337.236V16.6875ZM334.705 16.6875H335.971V42H334.705V16.6875ZM332.174 16.6875H333.439V42H332.174V16.6875ZM329.643 16.6875H330.908V42H329.643V16.6875ZM353.443 29.959H351.439C348.979 29.959 347.086 29.4609 345.762 28.4648C344.438 27.457 343.775 26.0742 343.775 24.3164C343.775 22.6758 344.555 21.3105 346.113 20.2207C347.672 19.1191 349.857 18.5684 352.67 18.5684C354.545 18.5684 356.291 18.8262 357.908 19.3418C359.537 19.8574 360.891 20.584 361.969 21.5215L360.984 22.3125C360.023 21.5273 358.816 20.918 357.363 20.4844C355.91 20.0508 354.346 19.834 352.67 19.834C350.197 19.834 348.305 20.2559 346.992 21.0996C345.691 21.9434 345.041 23.0156 345.041 24.3164C345.041 25.7227 345.574 26.8066 346.641 27.5684C347.719 28.3184 349.318 28.6934 351.439 28.6934H353.373C355.869 28.6934 357.779 29.1973 359.104 30.2051C360.439 31.2012 361.107 32.5781 361.107 34.3359C361.107 35.9766 360.328 37.3477 358.77 38.4492C357.211 39.5391 355.025 40.084 352.213 40.084C350.338 40.084 348.586 39.8262 346.957 39.3105C345.34 38.7949 343.992 38.0684 342.914 37.1309L343.898 36.3398C344.859 37.125 346.066 37.7344 347.52 38.168C348.973 38.6016 350.537 38.8184 352.213 38.8184C354.686 38.8184 356.572 38.3965 357.873 37.5527C359.186 36.709 359.842 35.6367 359.842 34.3359C359.842 32.9297 359.303 31.8516 358.225 31.1016C357.158 30.3398 355.564 29.959 353.443 29.959ZM353.443 32.4902H351.439C348.182 32.4902 345.668 31.752 343.898 30.2754C342.129 28.7871 341.244 26.8008 341.244 24.3164C341.244 23.1797 341.496 22.1133 342 21.1172C342.504 20.1211 343.225 19.248 344.162 18.498C345.111 17.7363 346.318 17.1387 347.783 16.7051C349.248 16.2598 350.877 16.0371 352.67 16.0371C354.932 16.0371 357.047 16.3828 359.016 17.0742C360.984 17.7539 362.625 18.709 363.938 19.9395L362.918 20.6953C361.723 19.6172 360.229 18.7852 358.436 18.1992C356.643 17.6016 354.721 17.3027 352.67 17.3027C349.506 17.3027 347.021 17.9707 345.217 19.3066C343.412 20.6426 342.51 22.3125 342.51 24.3164C342.51 26.4375 343.283 28.1191 344.83 29.3613C346.377 30.6035 348.58 31.2246 351.439 31.2246H353.373C356.842 31.2246 358.576 32.2617 358.576 34.3359C358.576 35.2734 358.043 36.0469 356.977 36.6562C355.922 37.2539 354.334 37.5527 352.213 37.5527C350.725 37.5527 349.342 37.3828 348.064 37.043C346.787 36.6914 345.732 36.1934 344.9 35.5488L345.902 34.7754C347.367 35.7832 349.471 36.2871 352.213 36.2871C353.971 36.2871 355.26 36.1055 356.08 35.7422C356.9 35.3789 357.311 34.9102 357.311 34.3359C357.311 33.668 357.023 33.1934 356.449 32.9121C355.875 32.6309 354.873 32.4902 353.443 32.4902ZM353.443 27.4277H351.439C348.018 27.4277 346.307 26.3906 346.307 24.3164C346.307 23.3789 346.834 22.6113 347.889 22.0137C348.955 21.4043 350.549 21.0996 352.67 21.0996C354.158 21.0996 355.541 21.2754 356.818 21.627C358.096 21.9668 359.15 22.459 359.982 23.1035L358.98 23.877C357.516 22.8691 355.412 22.3652 352.67 22.3652C350.912 22.3652 349.623 22.5469 348.803 22.9102C347.982 23.2734 347.572 23.7422 347.572 24.3164C347.572 24.9844 347.859 25.459 348.434 25.7402C349.008 26.0215 350.01 26.1621 351.439 26.1621H353.443C356.701 26.1621 359.215 26.9062 360.984 28.3945C362.754 29.8711 363.639 31.8516 363.639 34.3359C363.639 35.4727 363.387 36.5391 362.883 37.5352C362.379 38.5312 361.652 39.4102 360.703 40.1719C359.766 40.9219 358.564 41.5195 357.1 41.9648C355.635 42.3984 354.006 42.6152 352.213 42.6152C349.951 42.6152 347.836 42.2754 345.867 41.5957C343.898 40.9043 342.258 39.9434 340.945 38.7129L341.965 37.957C343.16 39.0352 344.654 39.873 346.447 40.4707C348.24 41.0566 350.162 41.3496 352.213 41.3496C355.377 41.3496 357.861 40.6816 359.666 39.3457C361.471 38.0098 362.373 36.3398 362.373 34.3359C362.373 32.2148 361.6 30.5332 360.053 29.291C358.506 28.0488 356.303 27.4277 353.443 27.4277ZM386.385 31.7871L385.119 29.4844V16.6875H386.385V31.7871ZM388.916 36.1641L387.65 34.0195V16.6875H388.916V36.1641ZM371.479 26.9004L372.744 29.2031V42H371.479V26.9004ZM368.947 22.3477L370.213 24.668V42H368.947V22.3477ZM369.387 16.6875H370.863L385.523 42H384.047L369.387 16.6875ZM372.375 16.6875H373.869L388.512 42H387L372.375 16.6875ZM375.346 16.6875H376.822L390.182 39.8027V16.6875H391.447V42H389.953L375.346 16.6875ZM367.682 18.8672V42H366.416V16.6875H367.928L382.535 42H381.076L367.682 18.8672ZM412.717 29.5195C412.717 28.0195 412.254 26.8594 411.328 26.0391C410.402 25.2188 409.178 24.8086 407.654 24.8086C406.365 24.8086 405.258 25.2539 404.332 26.1445C403.406 27.0352 402.943 28.1016 402.943 29.3438C402.943 30.0469 403.037 30.6797 403.225 31.2422C403.412 31.793 403.664 32.2559 403.98 32.6309C404.309 32.9941 404.695 33.2988 405.141 33.5449C405.586 33.7793 406.049 33.9492 406.529 34.0547C407.021 34.1602 407.543 34.2129 408.094 34.2129C409.43 34.2129 410.648 33.8848 411.75 33.2285V34.4941C410.613 35.0918 409.389 35.3906 408.076 35.3906C407.232 35.3906 406.436 35.2793 405.686 35.0566C404.947 34.8223 404.273 34.4766 403.664 34.0195C403.055 33.5508 402.568 32.918 402.205 32.1211C401.854 31.3125 401.678 30.3867 401.678 29.3438C401.678 27.7266 402.246 26.3555 403.383 25.2305C404.52 24.1055 405.943 23.543 407.654 23.543C409.541 23.543 411.064 24.0762 412.225 25.1426C413.396 26.1973 413.982 27.6562 413.982 29.5195V42H412.717V29.5195ZM416.514 29.5195V42H415.248V29.5195C415.248 27.3047 414.539 25.5469 413.121 24.2461C411.703 22.9336 409.881 22.2773 407.654 22.2773C405.592 22.2773 403.869 22.9629 402.486 24.334C401.104 25.7051 400.412 27.375 400.412 29.3438C400.412 30.5391 400.617 31.6113 401.027 32.5605C401.449 33.5098 402.018 34.2715 402.732 34.8457C403.447 35.4199 404.244 35.8594 405.123 36.1641C406.014 36.457 406.951 36.6035 407.936 36.6035C409.271 36.6035 410.543 36.293 411.75 35.6719V37.0078C410.484 37.5352 409.207 37.7988 407.918 37.7988C406.758 37.7988 405.656 37.623 404.613 37.2715C403.57 36.9082 402.639 36.3867 401.818 35.707C400.998 35.0156 400.348 34.125 399.867 33.0352C399.387 31.9336 399.146 30.7031 399.146 29.3438C399.146 27.0352 399.961 25.0723 401.59 23.4551C403.23 21.8262 405.252 21.0117 407.654 21.0117C409.342 21.0117 410.854 21.3574 412.189 22.0488C413.525 22.7285 414.58 23.7188 415.354 25.0195C416.127 26.3203 416.514 27.8203 416.514 29.5195ZM419.045 29.5195V42H417.779V29.5195C417.779 27.5859 417.334 25.875 416.443 24.3867C415.564 22.8867 414.357 21.7383 412.822 20.9414C411.287 20.1445 409.564 19.7461 407.654 19.7461C405.838 19.7461 404.18 20.1797 402.68 21.0469C401.18 21.9023 400.002 23.0625 399.146 24.5273C398.303 25.9922 397.881 27.5977 397.881 29.3438C397.881 30.8438 398.156 32.2148 398.707 33.457C399.258 34.6875 399.996 35.7012 400.922 36.498C401.859 37.2949 402.92 37.916 404.104 38.3613C405.299 38.7949 406.547 39.0117 407.848 39.0117C409.172 39.0117 410.473 38.7363 411.75 38.1855V39.4688C410.414 39.9727 409.102 40.2246 407.812 40.2246C405.785 40.2246 403.922 39.7676 402.223 38.8535C400.523 37.9395 399.164 36.6445 398.145 34.9688C397.125 33.293 396.615 31.418 396.615 29.3438C396.615 27.8672 396.896 26.4609 397.459 25.125C398.033 23.7891 398.807 22.6348 399.779 21.6621C400.752 20.6895 401.924 19.916 403.295 19.3418C404.666 18.7676 406.119 18.4805 407.654 18.4805C409.799 18.4805 411.732 18.9375 413.455 19.8516C415.189 20.7656 416.555 22.0664 417.551 23.7539C418.547 25.4414 419.045 27.3633 419.045 29.5195ZM421.576 29.5195V42H420.311V29.5195C420.311 27.1289 419.754 24.9961 418.641 23.1211C417.527 21.2344 416.01 19.7812 414.088 18.7617C412.166 17.7305 410.021 17.2148 407.654 17.2148C405.381 17.2148 403.301 17.7598 401.414 18.8496C399.527 19.9395 398.045 21.416 396.967 23.2793C395.889 25.1309 395.35 27.1523 395.35 29.3438C395.35 30.7852 395.578 32.1562 396.035 33.457C396.504 34.7461 397.137 35.877 397.934 36.8496C398.742 37.8105 399.668 38.6426 400.711 39.3457C401.766 40.0488 402.896 40.582 404.104 40.9453C405.322 41.3086 406.559 41.4902 407.812 41.4902C409.195 41.4902 410.508 41.2266 411.75 40.6992V42C410.449 42.457 409.113 42.6855 407.742 42.6855C406.324 42.6855 404.941 42.4863 403.594 42.0879C402.258 41.6895 401.016 41.1035 399.867 40.3301C398.73 39.5449 397.729 38.625 396.861 37.5703C395.994 36.5039 395.314 35.2617 394.822 33.8438C394.33 32.4258 394.084 30.9258 394.084 29.3438C394.084 27.5273 394.424 25.7988 395.104 24.1582C395.795 22.5059 396.732 21.082 397.916 19.8867C399.111 18.6797 400.553 17.7246 402.24 17.0215C403.939 16.3066 405.744 15.9492 407.654 15.9492C409.6 15.9492 411.428 16.2773 413.139 16.9336C414.85 17.5898 416.326 18.5039 417.568 19.6758C418.811 20.8359 419.789 22.2656 420.504 23.9648C421.219 25.6641 421.576 27.5156 421.576 29.5195ZM429.188 23.7012H430.453V42H429.188V23.7012ZM424.125 17.9531V16.6875H443.109V17.9531H424.125ZM424.125 20.4844V19.2188H443.109V20.4844H424.125ZM424.125 23.0156V21.75H443.109V23.0156H424.125ZM436.781 23.7012H438.047V42H436.781V23.7012ZM434.25 23.7012H435.516V42H434.25V23.7012ZM431.719 23.7012H432.984V42H431.719V23.7012ZM471.234 16.6875H472.5V42H471.234V16.6875ZM445.904 16.6875H447.17V42H445.904V16.6875ZM468.703 16.6875H469.969V42H468.703V16.6875ZM466.172 16.6875H467.438V42H466.172V16.6875ZM463.641 16.6875H464.906V42H463.641V31.875H454.764V42H453.498V16.6875H454.764V25.5469H463.641V16.6875ZM450.967 16.6875H452.232V42H450.967V16.6875ZM448.436 16.6875H449.701V42H448.436V16.6875ZM463.641 30.6094V29.3438H454.764V30.6094H463.641ZM463.641 28.0781V26.8125H454.764V28.0781H463.641Z" fill="white"/>
</svg>
