<svg width="64" height="37" viewBox="0 0 64 37" fill="none" xmlns="http://www.w3.org/2000/svg">
<circle cx="16" cy="18" r="16" fill="#171818"/>
<circle cx="32" cy="18" r="16" fill="#3F3D3D"/>
<circle cx="48" cy="18" r="16" fill="white"/>
<path d="M26.7383 15.2266L26.0469 15.6836C25.625 15.0586 25.0742 14.5664 24.3945 14.207C23.7227 13.8398 22.9922 13.6562 22.2031 13.6562C20.9219 13.6562 19.8281 14.1094 18.9219 15.0156C18.0156 15.9219 17.5625 17.0156 17.5625 18.2969C17.5625 19.5781 18.0156 20.6719 18.9219 21.5781C19.8281 22.4844 20.9219 22.9375 22.2031 22.9375C22.9922 22.9375 23.7227 22.7539 24.3945 22.3867C25.0742 22.0195 25.625 21.5234 26.0469 20.8984L26.7266 21.3906C26.2266 22.125 25.5781 22.707 24.7812 23.1367C23.9844 23.5664 23.125 23.7812 22.2031 23.7812C21.4609 23.7812 20.75 23.6367 20.0703 23.3477C19.3984 23.0586 18.8164 22.668 18.3242 22.1758C17.832 21.6836 17.4414 21.1016 17.1523 20.4297C16.8633 19.75 16.7188 19.0391 16.7188 18.2969C16.7188 17.5547 16.8633 16.8477 17.1523 16.1758C17.4414 15.4961 17.832 14.9102 18.3242 14.418C18.8164 13.9258 19.3984 13.5352 20.0703 13.2461C20.75 12.957 21.4609 12.8125 22.2031 12.8125C23.1328 12.8125 23.9961 13.0312 24.793 13.4688C25.5898 13.8984 26.2383 14.4844 26.7383 15.2266ZM28.1328 14.2656L27.4297 14.7227C26.8516 13.8789 26.1016 13.2109 25.1797 12.7188C24.2656 12.2188 23.2734 11.9688 22.2031 11.9688C21.0547 11.9688 19.9961 12.2539 19.0273 12.8242C18.0586 13.3867 17.2891 14.1523 16.7188 15.1211C16.1562 16.0898 15.875 17.1484 15.875 18.2969C15.875 19.4453 16.1562 20.5039 16.7188 21.4727C17.2891 22.4414 18.0586 23.2109 19.0273 23.7812C19.9961 24.3438 21.0547 24.625 22.2031 24.625C23.2734 24.625 24.2695 24.375 25.1914 23.875C26.1133 23.375 26.8633 22.6992 27.4414 21.8477L28.1328 22.3281C27.4766 23.2969 26.625 24.0625 25.5781 24.625C24.5391 25.1875 23.4141 25.4688 22.2031 25.4688C20.9062 25.4688 19.707 25.1484 18.6055 24.5078C17.5039 23.8672 16.6328 22.9961 15.9922 21.8945C15.3516 20.793 15.0312 19.5938 15.0312 18.2969C15.0312 17 15.3516 15.8008 15.9922 14.6992C16.6328 13.5977 17.5039 12.7266 18.6055 12.0859C19.707 11.4453 20.9062 11.125 22.2031 11.125C23.4141 11.125 24.5391 11.4062 25.5781 11.9688C26.625 12.5312 27.4766 13.2969 28.1328 14.2656ZM29.5391 13.3281L28.8359 13.7852C28.1016 12.707 27.1484 11.8555 25.9766 11.2305C24.8125 10.5977 23.5547 10.2812 22.2031 10.2812C21.1172 10.2812 20.0781 10.4922 19.0859 10.9141C18.0938 11.3359 17.2383 11.9062 16.5195 12.625C15.8086 13.3359 15.2422 14.1875 14.8203 15.1797C14.3984 16.1719 14.1875 17.2109 14.1875 18.2969C14.1875 19.3828 14.3984 20.4219 14.8203 21.4141C15.2422 22.4062 15.8086 23.2617 16.5195 23.9805C17.2383 24.6914 18.0938 25.2578 19.0859 25.6797C20.0781 26.1016 21.1172 26.3125 22.2031 26.3125C23.5625 26.3125 24.8242 25.9961 25.9883 25.3633C27.1523 24.7305 28.1016 23.875 28.8359 22.7969L29.5156 23.3008C28.7031 24.4883 27.6523 25.4297 26.3633 26.125C25.082 26.8125 23.6953 27.1562 22.2031 27.1562C20.6016 27.1562 19.1211 26.7617 17.7617 25.9727C16.4023 25.1758 15.3242 24.0977 14.5273 22.7383C13.7383 21.3789 13.3438 19.8984 13.3438 18.2969C13.3438 16.6953 13.7383 15.2148 14.5273 13.8555C15.3242 12.4961 16.4023 11.4219 17.7617 10.6328C19.1211 9.83594 20.6016 9.4375 22.2031 9.4375C23.7031 9.4375 25.0977 9.78906 26.3867 10.4922C27.6758 11.1875 28.7266 12.1328 29.5391 13.3281ZM30.9219 12.3672L30.2188 12.8242C29.3281 11.5195 28.1758 10.4883 26.7617 9.73047C25.3555 8.97266 23.8359 8.59375 22.2031 8.59375C20.8906 8.59375 19.6328 8.85156 18.4297 9.36719C17.2344 9.875 16.2031 10.5625 15.3359 11.4297C14.4688 12.2969 13.7773 13.332 13.2617 14.5352C12.7539 15.7305 12.5 16.9844 12.5 18.2969C12.5 19.6094 12.7539 20.8672 13.2617 22.0703C13.7773 23.2656 14.4688 24.2969 15.3359 25.1641C16.2031 26.0312 17.2344 26.7227 18.4297 27.2383C19.6328 27.7461 20.8906 28 22.2031 28C23.8359 28 25.3594 27.6172 26.7734 26.8516C28.1875 26.0859 29.3398 25.0508 30.2305 23.7461L30.9102 24.2617C29.9414 25.668 28.6914 26.7852 27.1602 27.6133C25.6289 28.4336 23.9766 28.8438 22.2031 28.8438C20.7734 28.8438 19.4062 28.5625 18.1016 28C16.8047 27.4453 15.6836 26.6992 14.7383 25.7617C13.8008 24.8164 13.0508 23.6953 12.4883 22.3984C11.9336 21.0938 11.6562 19.7266 11.6562 18.2969C11.6562 16.8672 11.9336 15.5039 12.4883 14.207C13.0508 12.9023 13.8008 11.7812 14.7383 10.8438C15.6836 9.89844 16.8047 9.14844 18.1016 8.59375C19.4062 8.03125 20.7734 7.75 22.2031 7.75C23.9844 7.75 25.6406 8.16406 27.1719 8.99219C28.7031 9.82031 29.9531 10.9453 30.9219 12.3672ZM45.4414 21.2383C45.4414 20.9336 45.3477 20.7305 45.1602 20.6289C44.9805 20.5273 44.7148 20.4766 44.3633 20.4766H38.9258V19.6328H44.3633C45.6445 19.6328 46.2852 20.168 46.2852 21.2383C46.2852 21.8398 46.1094 22.2734 45.7578 22.5391C45.4062 22.8047 44.9414 22.9375 44.3633 22.9375H38.9258V22.0938H44.3633C45.082 22.0938 45.4414 21.8086 45.4414 21.2383ZM38.457 28H37.6133V13.6562H44.3633C44.8945 13.6562 45.3477 13.8203 45.7227 14.1484C46.0977 14.4688 46.2852 14.8711 46.2852 15.3555C46.2852 15.9961 46.1094 16.4609 45.7578 16.75C45.4062 17.0312 44.9414 17.1719 44.3633 17.1719H38.9258V16.3281H44.3633C45.082 16.3281 45.4414 16.0039 45.4414 15.3555C45.4414 15.0898 45.3398 14.8828 45.1367 14.7344C44.9336 14.5781 44.6758 14.5 44.3633 14.5H38.457V28ZM38.9258 18.0156H44.3633C45.1367 18.0156 45.7891 17.7852 46.3203 17.3242C46.8594 16.8555 47.1289 16.1992 47.1289 15.3555C47.1289 14.6758 46.8477 14.082 46.2852 13.5742C45.7305 13.0664 45.0898 12.8125 44.3633 12.8125H36.7695V28H35.9258V11.9688H44.3633C45.3242 11.9688 46.1641 12.3086 46.8828 12.9883C47.6094 13.6602 47.9727 14.4492 47.9727 15.3555C47.9727 16.0664 47.8047 16.6875 47.4688 17.2188C47.1406 17.75 46.6953 18.1602 46.1328 18.4492C47.3594 18.8867 47.9727 19.7773 47.9727 21.1211C47.9727 22.1836 47.6211 23.0352 46.918 23.6758C46.2148 24.3086 45.3633 24.625 44.3633 24.625H38.9258V23.7812H44.3633C45.1367 23.7812 45.7891 23.5508 46.3203 23.0898C46.8594 22.6211 47.1289 21.9648 47.1289 21.1211C47.1289 20.5508 46.9258 20.0469 46.5195 19.6094C46.1133 19.1719 45.5156 18.918 44.7266 18.8477C44.6484 18.8555 44.5273 18.8594 44.3633 18.8594H38.9258V18.0156ZM49.6602 15.3555C49.6602 16.4492 49.2734 17.4375 48.5 18.3203C49.2734 19.1797 49.6602 20.1133 49.6602 21.1211C49.6602 22.0977 49.4141 22.9883 48.9219 23.793C48.4375 24.5898 47.7891 25.2109 46.9766 25.6562C46.1719 26.0938 45.3008 26.3125 44.3633 26.3125H38.9258V25.4688H44.3633C45.582 25.4688 46.6289 25.0625 47.5039 24.25C48.3789 23.4297 48.8164 22.3867 48.8164 21.1211C48.8164 20.668 48.6992 20.168 48.4648 19.6211C48.2383 19.0664 47.9219 18.6445 47.5156 18.3555C48.3828 17.543 48.8164 16.543 48.8164 15.3555C48.8164 14.2148 48.3711 13.2266 47.4805 12.3906C46.5898 11.5469 45.5508 11.125 44.3633 11.125H35.082V28H34.2383V10.2812H44.3633C45.293 10.2812 46.1641 10.5117 46.9766 10.9727C47.7969 11.4258 48.4492 12.0469 48.9336 12.8359C49.418 13.6172 49.6602 14.457 49.6602 15.3555ZM49.4609 18.3672C50.1562 17.4375 50.5039 16.4336 50.5039 15.3555C50.5039 14.3008 50.2227 13.3203 49.6602 12.4141C49.1055 11.5 48.3555 10.7773 47.4102 10.2461C46.4648 9.70703 45.4492 9.4375 44.3633 9.4375H33.3945V28H32.5508V8.59375H44.3633C45.5977 8.59375 46.75 8.89844 47.8203 9.50781C48.8984 10.1172 49.7539 10.9453 50.3867 11.9922C51.0273 13.0312 51.3477 14.1523 51.3477 15.3555C51.3477 16.5039 51.0234 17.5117 50.375 18.3789C51.0234 19.2773 51.3477 20.1914 51.3477 21.1211C51.3477 22.168 51.1602 23.1289 50.7852 24.0039C50.4102 24.8711 49.9023 25.5938 49.2617 26.1719C48.6289 26.75 47.8906 27.1992 47.0469 27.5195C46.2031 27.8398 45.3086 28 44.3633 28H38.9258V27.1562H44.3633C45.1836 27.1562 45.9688 27.0039 46.7188 26.6992C47.4688 26.3867 48.1211 25.9648 48.6758 25.4336C49.2305 24.9023 49.6719 24.2617 50 23.5117C50.3359 22.7617 50.5039 21.9648 50.5039 21.1211C50.5039 20.7461 50.4141 20.2969 50.2344 19.7734C50.0625 19.2422 49.8047 18.7734 49.4609 18.3672Z" fill="#A76AF3"/>
</svg>
