<svg width="48" height="28" viewBox="0 0 48 28" fill="none" xmlns="http://www.w3.org/2000/svg">
<circle cx="12.5" cy="14.5" r="12.5" fill="#171818"/>
<circle cx="23.5" cy="14.5" r="12.5" fill="#3F3D3D"/>
<circle cx="35.5" cy="14.5" r="12.5" fill="white"/>
<path d="M19.8037 11.4199L19.2852 11.7627C18.9688 11.2939 18.5557 10.9248 18.0459 10.6553C17.542 10.3799 16.9941 10.2422 16.4023 10.2422C15.4414 10.2422 14.6211 10.582 13.9414 11.2617C13.2617 11.9414 12.9219 12.7617 12.9219 13.7227C12.9219 14.6836 13.2617 15.5039 13.9414 16.1836C14.6211 16.8633 15.4414 17.2031 16.4023 17.2031C16.9941 17.2031 17.542 17.0654 18.0459 16.79C18.5557 16.5146 18.9688 16.1426 19.2852 15.6738L19.7949 16.043C19.4199 16.5938 18.9336 17.0303 18.3359 17.3525C17.7383 17.6748 17.0938 17.8359 16.4023 17.8359C15.8457 17.8359 15.3125 17.7275 14.8027 17.5107C14.2988 17.2939 13.8623 17.001 13.4932 16.6318C13.124 16.2627 12.8311 15.8262 12.6143 15.3223C12.3975 14.8125 12.2891 14.2793 12.2891 13.7227C12.2891 13.166 12.3975 12.6357 12.6143 12.1318C12.8311 11.6221 13.124 11.1826 13.4932 10.8135C13.8623 10.4443 14.2988 10.1514 14.8027 9.93457C15.3125 9.71777 15.8457 9.60938 16.4023 9.60938C17.0996 9.60938 17.7471 9.77344 18.3447 10.1016C18.9424 10.4238 19.4287 10.8633 19.8037 11.4199ZM20.8496 10.6992L20.3223 11.042C19.8887 10.4092 19.3262 9.9082 18.6348 9.53906C17.9492 9.16406 17.2051 8.97656 16.4023 8.97656C15.541 8.97656 14.7471 9.19043 14.0205 9.61816C13.2939 10.04 12.7168 10.6143 12.2891 11.3408C11.8672 12.0674 11.6562 12.8613 11.6562 13.7227C11.6562 14.584 11.8672 15.3779 12.2891 16.1045C12.7168 16.8311 13.2939 17.4082 14.0205 17.8359C14.7471 18.2578 15.541 18.4688 16.4023 18.4688C17.2051 18.4688 17.9521 18.2812 18.6436 17.9062C19.335 17.5312 19.8975 17.0244 20.3311 16.3857L20.8496 16.7461C20.3574 17.4727 19.7188 18.0469 18.9336 18.4688C18.1543 18.8906 17.3105 19.1016 16.4023 19.1016C15.4297 19.1016 14.5303 18.8613 13.7041 18.3809C12.8779 17.9004 12.2246 17.2471 11.7441 16.4209C11.2637 15.5947 11.0234 14.6953 11.0234 13.7227C11.0234 12.75 11.2637 11.8506 11.7441 11.0244C12.2246 10.1982 12.8779 9.54492 13.7041 9.06445C14.5303 8.58398 15.4297 8.34375 16.4023 8.34375C17.3105 8.34375 18.1543 8.55469 18.9336 8.97656C19.7188 9.39844 20.3574 9.97266 20.8496 10.6992ZM21.9043 9.99609L21.377 10.3389C20.8262 9.53027 20.1113 8.8916 19.2324 8.42285C18.3594 7.94824 17.416 7.71094 16.4023 7.71094C15.5879 7.71094 14.8086 7.86914 14.0645 8.18555C13.3203 8.50195 12.6787 8.92969 12.1396 9.46875C11.6064 10.002 11.1816 10.6406 10.8652 11.3848C10.5488 12.1289 10.3906 12.9082 10.3906 13.7227C10.3906 14.5371 10.5488 15.3164 10.8652 16.0605C11.1816 16.8047 11.6064 17.4463 12.1396 17.9854C12.6787 18.5186 13.3203 18.9434 14.0645 19.2598C14.8086 19.5762 15.5879 19.7344 16.4023 19.7344C17.4219 19.7344 18.3682 19.4971 19.2412 19.0225C20.1143 18.5479 20.8262 17.9062 21.377 17.0977L21.8867 17.4756C21.2773 18.3662 20.4893 19.0723 19.5225 19.5938C18.5615 20.1094 17.5215 20.3672 16.4023 20.3672C15.2012 20.3672 14.0908 20.0713 13.0713 19.4795C12.0518 18.8818 11.2432 18.0732 10.6455 17.0537C10.0537 16.0342 9.75781 14.9238 9.75781 13.7227C9.75781 12.5215 10.0537 11.4111 10.6455 10.3916C11.2432 9.37207 12.0518 8.56641 13.0713 7.97461C14.0908 7.37695 15.2012 7.07812 16.4023 7.07812C17.5273 7.07812 18.5732 7.3418 19.54 7.86914C20.5068 8.39062 21.2949 9.09961 21.9043 9.99609ZM22.9414 9.27539L22.4141 9.61816C21.7461 8.63965 20.8818 7.86621 19.8213 7.29785C18.7666 6.72949 17.627 6.44531 16.4023 6.44531C15.418 6.44531 14.4746 6.63867 13.5723 7.02539C12.6758 7.40625 11.9023 7.92188 11.252 8.57227C10.6016 9.22266 10.083 9.99902 9.69629 10.9014C9.31543 11.7979 9.125 12.7383 9.125 13.7227C9.125 14.707 9.31543 15.6504 9.69629 16.5527C10.083 17.4492 10.6016 18.2227 11.252 18.873C11.9023 19.5234 12.6758 20.042 13.5723 20.4287C14.4746 20.8096 15.418 21 16.4023 21C17.627 21 18.7695 20.7129 19.8301 20.1387C20.8906 19.5645 21.7549 18.7881 22.4229 17.8096L22.9326 18.1963C22.2061 19.251 21.2686 20.0889 20.1201 20.71C18.9717 21.3252 17.7324 21.6328 16.4023 21.6328C15.3301 21.6328 14.3047 21.4219 13.3262 21C12.3535 20.584 11.5127 20.0244 10.8037 19.3213C10.1006 18.6123 9.53809 17.7715 9.11621 16.7988C8.7002 15.8203 8.49219 14.7949 8.49219 13.7227C8.49219 12.6504 8.7002 11.6279 9.11621 10.6553C9.53809 9.67676 10.1006 8.83594 10.8037 8.13281C11.5127 7.42383 12.3535 6.86133 13.3262 6.44531C14.3047 6.02344 15.3301 5.8125 16.4023 5.8125C17.7383 5.8125 18.9805 6.12305 20.1289 6.74414C21.2773 7.36523 22.2148 8.20898 22.9414 9.27539ZM33.8311 15.9287C33.8311 15.7002 33.7607 15.5479 33.6201 15.4717C33.4854 15.3955 33.2861 15.3574 33.0225 15.3574H28.9443V14.7246H33.0225C33.9834 14.7246 34.4639 15.126 34.4639 15.9287C34.4639 16.3799 34.332 16.7051 34.0684 16.9043C33.8047 17.1035 33.4561 17.2031 33.0225 17.2031H28.9443V16.5703H33.0225C33.5615 16.5703 33.8311 16.3564 33.8311 15.9287ZM28.5928 21H27.96V10.2422H33.0225C33.4209 10.2422 33.7607 10.3652 34.042 10.6113C34.3232 10.8516 34.4639 11.1533 34.4639 11.5166C34.4639 11.9971 34.332 12.3457 34.0684 12.5625C33.8047 12.7734 33.4561 12.8789 33.0225 12.8789H28.9443V12.2461H33.0225C33.5615 12.2461 33.8311 12.0029 33.8311 11.5166C33.8311 11.3174 33.7549 11.1621 33.6025 11.0508C33.4502 10.9336 33.2568 10.875 33.0225 10.875H28.5928V21ZM28.9443 13.5117H33.0225C33.6025 13.5117 34.0918 13.3389 34.4902 12.9932C34.8945 12.6416 35.0967 12.1494 35.0967 11.5166C35.0967 11.0068 34.8857 10.5615 34.4639 10.1807C34.0479 9.7998 33.5674 9.60938 33.0225 9.60938H27.3271V21H26.6943V8.97656H33.0225C33.7432 8.97656 34.373 9.23145 34.9121 9.74121C35.457 10.2451 35.7295 10.8369 35.7295 11.5166C35.7295 12.0498 35.6035 12.5156 35.3516 12.9141C35.1055 13.3125 34.7715 13.6201 34.3496 13.8369C35.2695 14.165 35.7295 14.833 35.7295 15.8408C35.7295 16.6377 35.4658 17.2764 34.9385 17.7568C34.4111 18.2314 33.7725 18.4688 33.0225 18.4688H28.9443V17.8359H33.0225C33.6025 17.8359 34.0918 17.6631 34.4902 17.3174C34.8945 16.9658 35.0967 16.4736 35.0967 15.8408C35.0967 15.4131 34.9443 15.0352 34.6396 14.707C34.335 14.3789 33.8867 14.1885 33.2949 14.1357C33.2363 14.1416 33.1455 14.1445 33.0225 14.1445H28.9443V13.5117ZM36.9951 11.5166C36.9951 12.3369 36.7051 13.0781 36.125 13.7402C36.7051 14.3848 36.9951 15.085 36.9951 15.8408C36.9951 16.5732 36.8105 17.2412 36.4414 17.8447C36.0781 18.4424 35.5918 18.9082 34.9824 19.2422C34.3789 19.5703 33.7256 19.7344 33.0225 19.7344H28.9443V19.1016H33.0225C33.9365 19.1016 34.7217 18.7969 35.3779 18.1875C36.0342 17.5723 36.3623 16.79 36.3623 15.8408C36.3623 15.501 36.2744 15.126 36.0986 14.7158C35.9287 14.2998 35.6914 13.9834 35.3867 13.7666C36.0371 13.1572 36.3623 12.4072 36.3623 11.5166C36.3623 10.6611 36.0283 9.91992 35.3604 9.29297C34.6924 8.66016 33.9131 8.34375 33.0225 8.34375H26.0615V21H25.4287V7.71094H33.0225C33.7197 7.71094 34.373 7.88379 34.9824 8.22949C35.5977 8.56934 36.0869 9.03516 36.4502 9.62695C36.8135 10.2129 36.9951 10.8428 36.9951 11.5166ZM36.8457 13.7754C37.3672 13.0781 37.6279 12.3252 37.6279 11.5166C37.6279 10.7256 37.417 9.99023 36.9951 9.31055C36.5791 8.625 36.0166 8.08301 35.3076 7.68457C34.5986 7.28027 33.8369 7.07812 33.0225 7.07812H24.7959V21H24.1631V6.44531H33.0225C33.9482 6.44531 34.8125 6.67383 35.6152 7.13086C36.4238 7.58789 37.0654 8.20898 37.54 8.99414C38.0205 9.77344 38.2607 10.6143 38.2607 11.5166C38.2607 12.3779 38.0176 13.1338 37.5312 13.7842C38.0176 14.458 38.2607 15.1436 38.2607 15.8408C38.2607 16.626 38.1201 17.3467 37.8389 18.0029C37.5576 18.6533 37.1768 19.1953 36.6963 19.6289C36.2217 20.0625 35.668 20.3994 35.0352 20.6396C34.4023 20.8799 33.7314 21 33.0225 21H28.9443V20.3672H33.0225C33.6377 20.3672 34.2266 20.2529 34.7891 20.0244C35.3516 19.79 35.8408 19.4736 36.2568 19.0752C36.6729 18.6768 37.0039 18.1963 37.25 17.6338C37.502 17.0713 37.6279 16.4736 37.6279 15.8408C37.6279 15.5596 37.5605 15.2227 37.4258 14.8301C37.2969 14.4316 37.1035 14.0801 36.8457 13.7754Z" fill="#B8B2B2"/>
</svg>
