<svg width="48" height="28" viewBox="0 0 48 28" fill="none" xmlns="http://www.w3.org/2000/svg">
<circle cx="12.5" cy="14.5" r="12.5" fill="#171818"/>
<circle cx="23.5" cy="14.5" r="12.5" fill="#3F3D3D"/>
<circle cx="35.5" cy="14.5" r="12.5" fill="white"/>
<path d="M19.8037 11.4199L19.2852 11.7627C18.9688 11.2939 18.5557 10.9248 18.0459 10.6553C17.542 10.3799 16.9941 10.2422 16.4023 10.2422C15.4414 10.2422 14.6211 10.582 13.9414 11.2617C13.2617 11.9414 12.9219 12.7617 12.9219 13.7227C12.9219 14.6836 13.2617 15.5039 13.9414 16.1836C14.6211 16.8633 15.4414 17.2031 16.4023 17.2031C16.9941 17.2031 17.542 17.0654 18.0459 16.79C18.5557 16.5146 18.9688 16.1426 19.2852 15.6738L19.7949 16.043C19.4199 16.5938 18.9336 17.0303 18.3359 17.3525C17.7383 17.6748 17.0938 17.8359 16.4023 17.8359C15.8457 17.8359 15.3125 17.7275 14.8027 17.5107C14.2988 17.2939 13.8623 17.001 13.4932 16.6318C13.124 16.2627 12.8311 15.8262 12.6143 15.3223C12.3975 14.8125 12.2891 14.2793 12.2891 13.7227C12.2891 13.166 12.3975 12.6357 12.6143 12.1318C12.8311 11.6221 13.124 11.1826 13.4932 10.8135C13.8623 10.4443 14.2988 10.1514 14.8027 9.93457C15.3125 9.71777 15.8457 9.60938 16.4023 9.60938C17.0996 9.60938 17.7471 9.77344 18.3447 10.1016C18.9424 10.4238 19.4287 10.8633 19.8037 11.4199ZM20.8496 10.6992L20.3223 11.042C19.8887 10.4092 19.3262 9.9082 18.6348 9.53906C17.9492 9.16406 17.2051 8.97656 16.4023 8.97656C15.541 8.97656 14.7471 9.19043 14.0205 9.61816C13.2939 10.04 12.7168 10.6143 12.2891 11.3408C11.8672 12.0674 11.6562 12.8613 11.6562 13.7227C11.6562 14.584 11.8672 15.3779 12.2891 16.1045C12.7168 16.8311 13.2939 17.4082 14.0205 17.8359C14.7471 18.2578 15.541 18.4688 16.4023 18.4688C17.2051 18.4688 17.9521 18.2812 18.6436 17.9062C19.335 17.5312 19.8975 17.0244 20.3311 16.3857L20.8496 16.7461C20.3574 17.4727 19.7188 18.0469 18.9336 18.4688C18.1543 18.8906 17.3105 19.1016 16.4023 19.1016C15.4297 19.1016 14.5303 18.8613 13.7041 18.3809C12.8779 17.9004 12.2246 17.2471 11.7441 16.4209C11.2637 15.5947 11.0234 14.6953 11.0234 13.7227C11.0234 12.75 11.2637 11.8506 11.7441 11.0244C12.2246 10.1982 12.8779 9.54492 13.7041 9.06445C14.5303 8.58398 15.4297 8.34375 16.4023 8.34375C17.3105 8.34375 18.1543 8.55469 18.9336 8.97656C19.7188 9.39844 20.3574 9.97266 20.8496 10.6992ZM21.9043 9.99609L21.377 10.3389C20.8262 9.53027 20.1113 8.8916 19.2324 8.42285C18.3594 7.94824 17.416 7.71094 16.4023 7.71094C15.5879 7.71094 14.8086 7.86914 14.0645 8.18555C13.3203 8.50195 12.6787 8.92969 12.1396 9.46875C11.6064 10.002 11.1816 10.6406 10.8652 11.3848C10.5488 12.1289 10.3906 12.9082 10.3906 13.7227C10.3906 14.5371 10.5488 15.3164 10.8652 16.0605C11.1816 16.8047 11.6064 17.4463 12.1396 17.9854C12.6787 18.5186 13.3203 18.9434 14.0645 19.2598C14.8086 19.5762 15.5879 19.7344 16.4023 19.7344C17.4219 19.7344 18.3682 19.4971 19.2412 19.0225C20.1143 18.5479 20.8262 17.9062 21.377 17.0977L21.8867 17.4756C21.2773 18.3662 20.4893 19.0723 19.5225 19.5938C18.5615 20.1094 17.5215 20.3672 16.4023 20.3672C15.2012 20.3672 14.0908 20.0713 13.0713 19.4795C12.0518 18.8818 11.2432 18.0732 10.6455 17.0537C10.0537 16.0342 9.75781 14.9238 9.75781 13.7227C9.75781 12.5215 10.0537 11.4111 10.6455 10.3916C11.2432 9.37207 12.0518 8.56641 13.0713 7.97461C14.0908 7.37695 15.2012 7.07812 16.4023 7.07812C17.5273 7.07812 18.5732 7.3418 19.54 7.86914C20.5068 8.39062 21.2949 9.09961 21.9043 9.99609ZM22.9414 9.27539L22.4141 9.61816C21.7461 8.63965 20.8818 7.86621 19.8213 7.29785C18.7666 6.72949 17.627 6.44531 16.4023 6.44531C15.418 6.44531 14.4746 6.63867 13.5723 7.02539C12.6758 7.40625 11.9023 7.92188 11.252 8.57227C10.6016 9.22266 10.083 9.99902 9.69629 10.9014C9.31543 11.7979 9.125 12.7383 9.125 13.7227C9.125 14.707 9.31543 15.6504 9.69629 16.5527C10.083 17.4492 10.6016 18.2227 11.252 18.873C11.9023 19.5234 12.6758 20.042 13.5723 20.4287C14.4746 20.8096 15.418 21 16.4023 21C17.627 21 18.7695 20.7129 19.8301 20.1387C20.8906 19.5645 21.7549 18.7881 22.4229 17.8096L22.9326 18.1963C22.2061 19.251 21.2686 20.0889 20.1201 20.71C18.9717 21.3252 17.7324 21.6328 16.4023 21.6328C15.3301 21.6328 14.3047 21.4219 13.3262 21C12.3535 20.584 11.5127 20.0244 10.8037 19.3213C10.1006 18.6123 9.53809 17.7715 9.11621 16.7988C8.7002 15.8203 8.49219 14.7949 8.49219 13.7227C8.49219 12.6504 8.7002 11.6279 9.11621 10.6553C9.53809 9.67676 10.1006 8.83594 10.8037 8.13281C11.5127 7.42383 12.3535 6.86133 13.3262 6.44531C14.3047 6.02344 15.3301 5.8125 16.4023 5.8125C17.7383 5.8125 18.9805 6.12305 20.1289 6.74414C21.2773 7.36523 22.2148 8.20898 22.9414 9.27539ZM33.8311 15.9287C33.8311 15.7002 33.7607 15.5479 33.6201 15.4717C33.4854 15.3955 33.2861 15.3574 33.0225 15.3574H28.9443V14.7246H33.0225C33.9834 14.7246 34.4639 15.126 34.4639 15.9287C34.4639 16.3799 34.332 16.7051 34.0684 16.9043C33.8047 17.1035 33.4561 17.2031 33.0225 17.2031H28.9443V16.5703H33.0225C33.5615 16.5703 33.8311 16.3564 33.8311 15.9287ZM28.5928 21H27.96V10.2422H33.0225C33.4209 10.2422 33.7607 10.3652 34.042 10.6113C34.3232 10.8516 34.4639 11.1533 34.4639 11.5166C34.4639 11.9971 34.332 12.3457 34.0684 12.5625C33.8047 12.7734 33.4561 12.8789 33.0225 12.8789H28.9443V12.2461H33.0225C33.5615 12.2461 33.8311 12.0029 33.8311 11.5166C33.8311 11.3174 33.7549 11.1621 33.6025 11.0508C33.4502 10.9336 33.2568 10.875 33.0225 10.875H28.5928V21ZM28.9443 13.5117H33.0225C33.6025 13.5117 34.0918 13.3389 34.4902 12.9932C34.8945 12.6416 35.0967 12.1494 35.0967 11.5166C35.0967 11.0068 34.8857 10.5615 34.4639 10.1807C34.0479 9.7998 33.5674 9.60938 33.0225 9.60938H27.3271V21H26.6943V8.97656H33.0225C33.7432 8.97656 34.373 9.23145 34.9121 9.74121C35.457 10.2451 35.7295 10.8369 35.7295 11.5166C35.7295 12.0498 35.6035 12.5156 35.3516 12.9141C35.1055 13.3125 34.7715 13.6201 34.3496 13.8369C35.2695 14.165 35.7295 14.833 35.7295 15.8408C35.7295 16.6377 35.4658 17.2764 34.9385 17.7568C34.4111 18.2314 33.7725 18.4688 33.0225 18.4688H28.9443V17.8359H33.0225C33.6025 17.8359 34.0918 17.6631 34.4902 17.3174C34.8945 16.9658 35.0967 16.4736 35.0967 15.8408C35.0967 15.4131 34.9443 15.0352 34.6396 14.707C34.335 14.3789 33.8867 14.1885 33.2949 14.1357C33.2363 14.1416 33.1455 14.1445 33.0225 14.1445H28.9443V13.5117ZM36.9951 11.5166C36.9951 12.3369 36.7051 13.0781 36.125 13.7402C36.7051 14.3848 36.9951 15.085 36.9951 15.8408C36.9951 16.5732 36.8105 17.2412 36.4414 17.8447C36.0781 18.4424 35.5918 18.9082 34.9824 19.2422C34.3789 19.5703 33.7256 19.7344 33.0225 19.7344H28.9443V19.1016H33.0225C33.9365 19.1016 34.7217 18.7969 35.3779 18.1875C36.0342 17.5723 36.3623 16.79 36.3623 15.8408C36.3623 15.501 36.2744 15.126 36.0986 14.7158C35.9287 14.2998 35.6914 13.9834 35.3867 13.7666C36.0371 13.1572 36.3623 12.4072 36.3623 11.5166C36.3623 10.6611 36.0283 9.91992 35.3604 9.29297C34.6924 8.66016 33.9131 8.34375 33.0225 8.34375H26.0615V21H25.4287V7.71094H33.0225C33.7197 7.71094 34.373 7.88379 34.9824 8.22949C35.5977 8.56934 36.0869 9.03516 36.4502 9.62695C36.8135 10.2129 36.9951 10.8428 36.9951 11.5166ZM36.8457 13.7754C37.3672 13.0781 37.6279 12.3252 37.6279 11.5166C37.6279 10.7256 37.417 9.99023 36.9951 9.31055C36.5791 8.625 36.0166 8.08301 35.3076 7.68457C34.5986 7.28027 33.8369 7.07812 33.0225 7.07812H24.7959V21H24.1631V6.44531H33.0225C33.9482 6.44531 34.8125 6.67383 35.6152 7.13086C36.4238 7.58789 37.0654 8.20898 37.54 8.99414C38.0205 9.77344 38.2607 10.6143 38.2607 11.5166C38.2607 12.3779 38.0176 13.1338 37.5312 13.7842C38.0176 14.458 38.2607 15.1436 38.2607 15.8408C38.2607 16.626 38.1201 17.3467 37.8389 18.0029C37.5576 18.6533 37.1768 19.1953 36.6963 19.6289C36.2217 20.0625 35.668 20.3994 35.0352 20.6396C34.4023 20.8799 33.7314 21 33.0225 21H28.9443V20.3672H33.0225C33.6377 20.3672 34.2266 20.2529 34.7891 20.0244C35.3516 19.79 35.8408 19.4736 36.2568 19.0752C36.6729 18.6768 37.0039 18.1963 37.25 17.6338C37.502 17.0713 37.6279 16.4736 37.6279 15.8408C37.6279 15.5596 37.5605 15.2227 37.4258 14.8301C37.2969 14.4316 37.1035 14.0801 36.8457 13.7754Z" fill="#B8B2B2"/>
<path d="M19.8037 11.4199L20.3551 12.2541L21.1967 11.6979L20.6331 10.8612L19.8037 11.4199ZM19.2852 11.7627L18.4563 12.3222L19.0104 13.143L19.8366 12.5969L19.2852 11.7627ZM18.0459 10.6553L17.5663 11.5329L17.5785 11.5393L18.0459 10.6553ZM18.0459 16.79L17.5706 15.9102L17.5663 15.9125L18.0459 16.79ZM19.2852 15.6738L19.8717 14.8639L19.0346 14.2577L18.4563 15.1144L19.2852 15.6738ZM19.7949 16.043L20.6215 16.6058L21.1682 15.8028L20.3814 15.233L19.7949 16.043ZM14.8027 17.5107L14.4075 18.4293L14.4114 18.431L14.8027 17.5107ZM12.6143 15.3223L11.694 15.7136L11.6957 15.7175L12.6143 15.3223ZM12.6143 12.1318L13.5329 12.527L13.5345 12.5232L12.6143 12.1318ZM14.8027 9.93457L14.4114 9.01433L14.4075 9.01598L14.8027 9.93457ZM18.3447 10.1016L17.8635 10.9782L17.8701 10.9818L18.3447 10.1016ZM20.8496 10.6992L21.3946 11.5377L22.2492 10.9822L21.6775 10.1384L20.8496 10.6992ZM20.3223 11.042L19.4973 11.6072L20.049 12.4123L20.8673 11.8804L20.3223 11.042ZM18.6348 9.53906L18.1548 10.4164L18.1638 10.4212L18.6348 9.53906ZM14.0205 9.61816L14.5227 10.483L14.5278 10.4799L14.0205 9.61816ZM12.2891 11.3408L11.4273 10.8335L11.4243 10.8387L12.2891 11.3408ZM12.2891 16.1045L11.4243 16.6066L11.4273 16.6118L12.2891 16.1045ZM14.0205 17.8359L13.5132 18.6977L13.5184 18.7007L14.0205 17.8359ZM20.3311 16.3857L20.9017 15.5646L20.0715 14.9877L19.5037 15.8241L20.3311 16.3857ZM20.8496 16.7461L21.6775 17.3069L22.2317 16.4888L21.4203 15.9249L20.8496 16.7461ZM18.9336 18.4688L18.4603 17.5879L18.4575 17.5893L18.9336 18.4688ZM18.9336 8.97656L18.4575 9.85597L18.4603 9.85746L18.9336 8.97656ZM21.9043 9.99609L22.4493 10.8345L23.3052 10.2782L22.7313 9.43393L21.9043 9.99609ZM21.377 10.3389L20.5505 10.9018L21.1014 11.7107L21.9219 11.1773L21.377 10.3389ZM19.2324 8.42285L18.7548 9.30145L18.7618 9.3052L19.2324 8.42285ZM12.1396 17.9854L11.4286 18.6886L11.4364 18.6963L12.1396 17.9854ZM21.377 17.0977L21.9725 16.2943L21.1364 15.6745L20.5505 16.5347L21.377 17.0977ZM21.8867 17.4756L22.712 18.0403L23.2557 17.2457L22.4823 16.6723L21.8867 17.4756ZM19.5225 19.5938L19.9953 20.4749L19.9972 20.4739L19.5225 19.5938ZM13.0713 19.4795L12.5656 20.3422L12.5693 20.3444L13.0713 19.4795ZM10.6455 17.0537L9.78064 17.5557L9.78281 17.5594L10.6455 17.0537ZM10.6455 10.3916L9.7828 9.88588L9.78065 9.88959L10.6455 10.3916ZM13.0713 7.97461L13.5733 8.83948L13.577 8.83731L13.0713 7.97461ZM19.54 7.86914L19.0612 8.74705L19.0653 8.74927L19.54 7.86914ZM22.9414 9.27539L23.4864 10.1138L24.3432 9.55689L23.7678 8.71234L22.9414 9.27539ZM22.4141 9.61816L21.5881 10.182L22.1393 10.9894L22.9591 10.4566L22.4141 9.61816ZM19.8213 7.29785L19.3469 8.17817L19.3489 8.17926L19.8213 7.29785ZM13.5723 7.02539L13.9633 7.94578L13.9662 7.94454L13.5723 7.02539ZM9.69629 10.9014L8.77714 10.5074L8.7759 10.5104L9.69629 10.9014ZM9.69629 16.5527L8.77496 16.9416L8.77808 16.9488L9.69629 16.5527ZM13.5723 20.4287L13.1762 21.347L13.1834 21.35L13.5723 20.4287ZM22.4229 17.8096L23.0272 17.0129L22.1897 16.3775L21.5969 17.2458L22.4229 17.8096ZM22.9326 18.1963L23.7561 18.7636L24.298 17.9769L23.537 17.3996L22.9326 18.1963ZM20.1201 20.71L20.5923 21.5914L20.5958 21.5896L20.1201 20.71ZM13.3262 21L13.7221 20.0817L13.7194 20.0806L13.3262 21ZM10.8037 19.3213L10.0937 20.0255L10.0995 20.0313L10.8037 19.3213ZM9.11621 16.7988L8.19591 17.1901L8.19879 17.1967L9.11621 16.7988ZM9.11621 10.6553L8.19792 10.2594L8.19678 10.262L9.11621 10.6553ZM13.3262 6.44531L13.7194 7.36475L13.7221 7.3636L13.3262 6.44531ZM19.2523 10.5857L18.7337 10.9285L19.8366 12.5969L20.3551 12.2541L19.2523 10.5857ZM20.114 11.2032C19.7038 10.5955 19.1654 10.116 18.5133 9.77124L17.5785 11.5393C17.9459 11.7336 18.2337 11.9924 18.4563 12.3222L20.114 11.2032ZM18.5255 9.77777C17.8699 9.41949 17.1564 9.24219 16.4023 9.24219V11.2422C16.8319 11.2422 17.2141 11.3403 17.5663 11.5328L18.5255 9.77777ZM16.4023 9.24219C15.1761 9.24219 14.1015 9.68745 13.2343 10.5546L14.6485 11.9688C15.1407 11.4766 15.7067 11.2422 16.4023 11.2422V9.24219ZM13.2343 10.5546C12.3671 11.4218 11.9219 12.4964 11.9219 13.7227H13.9219C13.9219 13.027 14.1563 12.461 14.6485 11.9688L13.2343 10.5546ZM11.9219 13.7227C11.9219 14.9489 12.3671 16.0235 13.2343 16.8907L14.6485 15.4765C14.1563 14.9843 13.9219 14.4183 13.9219 13.7227H11.9219ZM13.2343 16.8907C14.1015 17.7579 15.1761 18.2031 16.4023 18.2031V16.2031C15.7067 16.2031 15.1407 15.9687 14.6485 15.4765L13.2343 16.8907ZM16.4023 18.2031C17.1564 18.2031 17.8699 18.0258 18.5255 17.6675L17.5663 15.9125C17.2141 16.105 16.8319 16.2031 16.4023 16.2031V18.2031ZM18.5212 17.6699C19.1693 17.3197 19.7051 16.8392 20.114 16.2333L18.4563 15.1144C18.2324 15.446 17.942 15.7096 17.5706 15.9102L18.5212 17.6699ZM18.6986 16.4838L19.2084 16.8529L20.3814 15.233L19.8717 14.8639L18.6986 16.4838ZM18.9683 15.4802C18.6853 15.8959 18.3207 16.2246 17.8613 16.4723L18.8106 18.2327C19.5465 17.8359 20.1546 17.2916 20.6215 16.6058L18.9683 15.4802ZM17.8613 16.4723C17.4123 16.7145 16.9312 16.8359 16.4023 16.8359V18.8359C17.2563 18.8359 18.0643 18.6351 18.8106 18.2327L17.8613 16.4723ZM16.4023 16.8359C15.9795 16.8359 15.5795 16.7544 15.1941 16.5905L14.4114 18.431C15.0455 18.7007 15.7119 18.8359 16.4023 18.8359V16.8359ZM15.1979 16.5922C14.8045 16.4229 14.4753 16.1997 14.2003 15.9247L12.7861 17.3389C13.2493 17.8022 13.7932 18.165 14.4075 18.4293L15.1979 16.5922ZM14.2003 15.9247C13.9253 15.6497 13.7021 15.3205 13.5328 14.9271L11.6957 15.7175C11.96 16.3318 12.3228 16.8757 12.7861 17.3389L14.2003 15.9247ZM13.5345 14.9309C13.3706 14.5455 13.2891 14.1455 13.2891 13.7227H11.2891C11.2891 14.4131 11.4243 15.0795 11.694 15.7136L13.5345 14.9309ZM13.2891 13.7227C13.2891 13.2999 13.3706 12.9042 13.5328 12.527L11.6957 11.7366C11.4244 12.3672 11.2891 13.0322 11.2891 13.7227H13.2891ZM13.5345 12.5232C13.7042 12.1241 13.9272 11.7937 14.2003 11.5206L12.7861 10.1064C12.3209 10.5716 11.9579 11.1201 11.694 11.7405L13.5345 12.5232ZM14.2003 11.5206C14.4753 11.2456 14.8045 11.0224 15.1979 10.8532L14.4075 9.01598C13.7932 9.28029 13.2493 9.6431 12.7861 10.1064L14.2003 11.5206ZM15.1941 10.8548C15.5795 10.6909 15.9795 10.6094 16.4023 10.6094V8.60938C15.7119 8.60938 15.0455 8.74464 14.4114 9.01433L15.1941 10.8548ZM16.4023 10.6094C16.9353 10.6094 17.4167 10.7329 17.8635 10.9781L18.826 9.22498C18.0774 8.81399 17.2639 8.60938 16.4023 8.60938V10.6094ZM17.8701 10.9818C18.327 11.2281 18.6909 11.5579 18.9744 11.9786L20.6331 10.8612C20.1665 10.1686 19.5578 9.61955 18.8193 9.22137L17.8701 10.9818ZM20.3046 9.86078L19.7773 10.2035L20.8673 11.8804L21.3946 11.5377L20.3046 9.86078ZM21.1472 10.4768C20.6208 9.70845 19.9357 9.10002 19.1057 8.65692L18.1638 10.4212C18.7167 10.7164 19.1566 11.1099 19.4973 11.6072L21.1472 10.4768ZM19.1147 8.66174C18.2778 8.20399 17.368 7.97656 16.4023 7.97656V9.97656C17.0421 9.97656 17.6206 10.1241 18.1549 10.4164L19.1147 8.66174ZM16.4023 7.97656C15.3666 7.97656 14.3969 8.23613 13.5132 8.75641L14.5278 10.4799C15.0972 10.1447 15.7154 9.97656 16.4023 9.97656V7.97656ZM13.5184 8.75338C12.6427 9.26185 11.9419 9.95941 11.4273 10.8335L13.1508 11.8481C13.4917 11.2691 13.9452 10.8182 14.5226 10.483L13.5184 8.75338ZM11.4243 10.8387C10.9115 11.7217 10.6562 12.6896 10.6562 13.7227H12.6562C12.6562 13.033 12.8228 12.413 13.1539 11.843L11.4243 10.8387ZM10.6562 13.7227C10.6562 14.7557 10.9115 15.7236 11.4243 16.6066L13.1539 15.6024C12.8228 15.0323 12.6562 14.4123 12.6562 13.7227H10.6562ZM11.4273 16.6118C11.9412 17.4847 12.6403 18.1838 13.5132 18.6977L14.5278 16.9742C13.9476 16.6326 13.4924 16.1774 13.1508 15.5972L11.4273 16.6118ZM13.5184 18.7007C14.4014 19.2135 15.3693 19.4688 16.4023 19.4688V17.4688C15.7127 17.4688 15.0927 17.3022 14.5226 16.9711L13.5184 18.7007ZM16.4023 19.4688C17.368 19.4688 18.2794 19.2414 19.1203 18.7853L18.1668 17.0272C17.6249 17.3211 17.0421 17.4688 16.4023 17.4688V19.4688ZM19.1203 18.7853C19.9495 18.3355 20.6333 17.721 21.1584 16.9474L19.5037 15.8241C19.1617 16.3279 18.7204 16.727 18.1668 17.0272L19.1203 18.7853ZM19.7604 17.2069L20.279 17.5673L21.4203 15.9249L20.9017 15.5646L19.7604 17.2069ZM20.0217 16.1852C19.6216 16.7759 19.1054 17.2412 18.4603 17.5879L19.4069 19.3496C20.3321 18.8525 21.0933 18.1694 21.6775 17.3069L20.0217 16.1852ZM18.4575 17.5893C17.8282 17.93 17.1486 18.1016 16.4023 18.1016V20.1016C17.4725 20.1016 18.4804 19.8512 19.4097 19.3482L18.4575 17.5893ZM16.4023 18.1016C15.603 18.1016 14.8775 17.9065 14.2068 17.5164L13.2014 19.2453C14.183 19.8162 15.2564 20.1016 16.4023 20.1016V18.1016ZM14.2068 17.5164C13.5306 17.1231 13.0019 16.5944 12.6086 15.9182L10.8797 16.9236C11.4473 17.8997 12.2253 18.6777 13.2014 19.2453L14.2068 17.5164ZM12.6086 15.9182C12.2185 15.2475 12.0234 14.522 12.0234 13.7227H10.0234C10.0234 14.8686 10.3088 15.942 10.8797 16.9236L12.6086 15.9182ZM12.0234 13.7227C12.0234 12.9233 12.2185 12.1978 12.6086 11.5271L10.8797 10.5217C10.3088 11.5033 10.0234 12.5767 10.0234 13.7227H12.0234ZM12.6086 11.5271C13.0019 10.8509 13.5306 10.3222 14.2068 9.9289L13.2014 8.20001C12.2253 8.76765 11.4473 9.54562 10.8797 10.5217L12.6086 11.5271ZM14.2068 9.9289C14.8775 9.53885 15.603 9.34375 16.4023 9.34375V7.34375C15.2564 7.34375 14.183 7.62912 13.2014 8.20001L14.2068 9.9289ZM16.4023 9.34375C17.1486 9.34375 17.8282 9.51527 18.4575 9.85597L19.4097 8.09716C18.4804 7.59411 17.4725 7.34375 16.4023 7.34375V9.34375ZM18.4603 9.85746C19.1054 10.2041 19.6216 10.6694 20.0217 11.2601L21.6775 10.1384C21.0933 9.27588 20.3321 8.59277 19.4069 8.09567L18.4603 9.85746ZM21.3593 9.15765L20.832 9.50042L21.9219 11.1773L22.4493 10.8345L21.3593 9.15765ZM22.2034 9.7759C21.5599 8.83113 20.7219 8.08393 19.703 7.5405L18.7618 9.3052C19.5007 9.69928 20.0924 10.2294 20.5505 10.9018L22.2034 9.7759ZM19.71 7.54428C18.6874 6.98833 17.5794 6.71094 16.4023 6.71094V8.71094C17.2527 8.71094 18.0314 8.90815 18.7548 9.30142L19.71 7.54428ZM16.4023 6.71094C15.4544 6.71094 14.542 6.89587 13.6732 7.26528L14.4557 9.10581C15.0752 8.84241 15.7214 8.71094 16.4023 8.71094V6.71094ZM13.6732 7.26528C12.8183 7.62876 12.0676 8.12654 11.4325 8.76164L12.8468 10.1759C13.2898 9.73284 13.8223 9.37514 14.4557 9.10581L13.6732 7.26528ZM11.4325 8.76164C10.8023 9.39188 10.3079 10.14 9.94497 10.9935L11.7855 11.7761C12.0554 11.1413 12.4106 10.612 12.8468 10.1759L11.4325 8.76164ZM9.94497 10.9935C9.57556 11.8623 9.39062 12.7747 9.39062 13.7227H11.3906C11.3906 13.0417 11.5221 12.3955 11.7855 11.7761L9.94497 10.9935ZM9.39062 13.7227C9.39062 14.6706 9.57556 15.583 9.94497 16.4518L11.7855 15.6693C11.5221 15.0498 11.3906 14.4036 11.3906 13.7227H9.39062ZM9.94497 16.4518C10.3075 17.3044 10.8009 18.0539 11.4287 18.6886L12.8506 17.2821C12.412 16.8387 12.0558 16.3049 11.7855 15.6693L9.94497 16.4518ZM11.4364 18.6963C12.0711 19.3241 12.8206 19.8175 13.6732 20.18L14.4557 18.3395C13.8201 18.0692 13.2863 17.713 12.8429 17.2744L11.4364 18.6963ZM13.6732 20.18C14.542 20.5494 15.4544 20.7344 16.4023 20.7344V18.7344C15.7214 18.7344 15.0752 18.6029 14.4557 18.3395L13.6732 20.18ZM16.4023 20.7344C17.5842 20.7344 18.6953 20.4575 19.7188 19.901L18.7636 18.1439C18.041 18.5367 17.2595 18.7344 16.4023 18.7344V20.7344ZM19.7188 19.901C20.7293 19.3517 21.5617 18.6028 22.2034 17.6606L20.5505 16.5347C20.0907 17.2097 19.4992 17.744 18.7636 18.1439L19.7188 19.901ZM20.7814 17.901L21.2912 18.2789L22.4823 16.6723L21.9725 16.2943L20.7814 17.901ZM21.0614 16.9109C20.5437 17.6675 19.8768 18.2664 19.0477 18.7136L19.9972 20.4739C21.1017 19.8781 22.011 19.0649 22.712 18.0403L21.0614 16.9109ZM19.0496 18.7126C18.238 19.1481 17.361 19.3672 16.4023 19.3672V21.3672C17.682 21.3672 18.885 21.0706 19.9953 20.4749L19.0496 18.7126ZM16.4023 19.3672C15.374 19.3672 14.4373 19.1162 13.5733 18.6146L12.5693 20.3444C13.7443 21.0264 15.0283 21.3672 16.4023 21.3672V19.3672ZM13.577 18.6168C12.705 18.1056 12.0194 17.42 11.5082 16.548L9.78281 17.5594C10.467 18.7265 11.3985 19.658 12.5656 20.3422L13.577 18.6168ZM11.5104 16.5517C11.0088 15.6877 10.7578 14.751 10.7578 13.7227H8.75781C8.75781 15.0967 9.09859 16.3807 9.78065 17.5557L11.5104 16.5517ZM10.7578 13.7227C10.7578 12.6943 11.0088 11.7576 11.5104 10.8936L9.78065 9.88959C9.09859 11.0646 8.75781 12.3487 8.75781 13.7227H10.7578ZM11.5082 10.8973C12.0189 10.0262 12.7034 9.34444 13.5733 8.83947L12.5693 7.10975C11.4002 7.78837 10.4675 8.71792 9.78281 9.88588L11.5082 10.8973ZM13.577 8.83731C14.4405 8.33109 15.3759 8.07812 16.4023 8.07812V6.07812C15.0265 6.07812 13.7411 6.42281 12.5656 7.11191L13.577 8.83731ZM16.4023 8.07812C17.3638 8.07812 18.2445 8.3016 19.0612 8.74704L20.0189 6.99125C18.9019 6.382 17.6909 6.07812 16.4023 6.07812V8.07812ZM19.0653 8.74927C19.8928 9.19563 20.5594 9.79633 21.0773 10.5583L22.7313 9.43393C22.0305 8.40289 21.1208 7.58562 20.0148 6.98901L19.0653 8.74927ZM22.3964 8.43695L21.8691 8.77972L22.9591 10.4566L23.4864 10.1138L22.3964 8.43695ZM23.24 9.05437C22.4799 7.94097 21.4936 7.05949 20.2936 6.41644L19.3489 8.17926C20.2701 8.67293 21.0123 9.33833 21.5881 10.182L23.24 9.05437ZM20.2957 6.41754C19.0919 5.76883 17.7887 5.44531 16.4023 5.44531V7.44531C17.4652 7.44531 18.4413 7.69016 19.3469 8.17817L20.2957 6.41754ZM16.4023 5.44531C15.2829 5.44531 14.2055 5.66603 13.1783 6.10625L13.9662 7.94454C14.7437 7.61131 15.553 7.44531 16.4023 7.44531V5.44531ZM13.1813 6.10501C12.1738 6.53303 11.2912 7.11879 10.5448 7.86516L11.9591 9.27937C12.5135 8.72496 13.1778 8.27947 13.9633 7.94578L13.1813 6.10501ZM10.5448 7.86516C9.79857 8.61143 9.21057 9.49613 8.77714 10.5074L10.6154 11.2953C10.9554 10.5019 11.4046 9.83388 11.9591 9.27937L10.5448 7.86516ZM8.7759 10.5104C8.34194 11.5318 8.125 12.6054 8.125 13.7227H10.125C10.125 12.8712 10.2889 12.0639 10.6167 11.2924L8.7759 10.5104ZM8.125 13.7227C8.125 14.8399 8.34192 15.9155 8.77499 16.9416L10.6176 16.1639C10.2889 15.3852 10.125 14.5742 10.125 13.7227H8.125ZM8.77808 16.9488C9.21176 17.9542 9.79966 18.835 10.5448 19.5802L11.9591 18.1659C11.4035 17.6103 10.9543 16.9443 10.6145 16.1566L8.77808 16.9488ZM10.5448 19.5802C11.29 20.3253 12.1708 20.9132 13.1762 21.3469L13.9684 19.5105C13.1807 19.1707 12.5147 18.7215 11.9591 18.1659L10.5448 19.5802ZM13.1834 21.35C14.2095 21.7831 15.2851 22 16.4023 22V20C15.5508 20 14.7398 19.8361 13.9611 19.5074L13.1834 21.35ZM16.4023 22C17.7905 22 19.0971 21.6727 20.3062 21.018L19.354 19.2593C18.442 19.7531 17.4634 20 16.4023 20V22ZM20.3062 21.018C21.5042 20.3694 22.4893 19.4859 23.2488 18.3734L21.5969 17.2458C21.0204 18.0903 20.277 18.7595 19.354 19.2593L20.3062 21.018ZM21.8185 18.6063L22.3282 18.993L23.537 17.3996L23.0272 17.0129L21.8185 18.6063ZM22.1091 17.629C21.474 18.551 20.6567 19.2829 19.6444 19.8304L20.5958 21.5896C21.8804 20.8948 22.9381 19.951 23.7561 18.7636L22.1091 17.629ZM19.6479 19.8285C18.6478 20.3642 17.5712 20.6328 16.4023 20.6328V22.6328C17.8936 22.6328 19.2955 22.2862 20.5923 21.5914L19.6479 19.8285ZM16.4023 20.6328C15.4654 20.6328 14.5748 20.4493 13.7221 20.0817L12.9303 21.9183C14.0346 22.3944 15.1948 22.6328 16.4023 22.6328V20.6328ZM13.7194 20.0806C12.8557 19.7111 12.1221 19.2204 11.5079 18.6113L10.0995 20.0313C10.9033 20.8284 11.8513 21.4568 12.9329 21.9194L13.7194 20.0806ZM11.5137 18.6171C10.9035 18.0018 10.4091 17.2666 10.0336 16.4009L8.19879 17.1967C8.66706 18.2764 9.29768 19.2228 10.0937 20.0255L11.5137 18.6171ZM10.0365 16.4076C9.67354 15.5539 9.49219 14.6616 9.49219 13.7227H7.49219C7.49219 14.9282 7.72685 16.0868 8.19593 17.1901L10.0365 16.4076ZM9.49219 13.7227C9.49219 12.7837 9.67352 11.8952 10.0356 11.0485L8.19678 10.262C7.72687 11.3607 7.49219 12.5171 7.49219 13.7227H9.49219ZM10.0345 11.0512C10.4099 10.1804 10.9034 9.44736 11.5108 8.83992L10.0966 7.42571C9.29779 8.22452 8.66626 9.17309 8.19792 10.2594L10.0345 11.0512ZM11.5108 8.83992C12.1248 8.22597 12.8574 7.73343 13.7194 7.36474L12.9329 5.52588C11.8496 5.98922 10.9006 6.62169 10.0966 7.42571L11.5108 8.83992ZM13.7221 7.3636C14.5748 6.99598 15.4654 6.8125 16.4023 6.8125V4.8125C15.1948 4.8125 14.0346 5.0509 12.9303 5.52702L13.7221 7.3636ZM16.4023 6.8125C17.5762 6.8125 18.6544 7.08356 19.6532 7.62375L20.6046 5.86454C19.3066 5.16254 17.9004 4.8125 16.4023 4.8125V6.8125ZM19.6532 7.62375C20.6629 8.16978 21.4795 8.90567 22.115 9.83845L23.7678 8.71234C22.9502 7.5123 21.8918 6.56069 20.6046 5.86454L19.6532 7.62375ZM33.6201 15.4717L33.1281 16.3422L33.1359 16.3467L33.1438 16.351L33.6201 15.4717ZM28.9443 15.3574H27.9443V16.3574H28.9443V15.3574ZM28.9443 14.7246V13.7246H27.9443V14.7246H28.9443ZM28.9443 17.2031H27.9443V18.2031H28.9443V17.2031ZM28.9443 16.5703V15.5703H27.9443V16.5703H28.9443ZM28.5928 21V22H29.5928V21H28.5928ZM27.96 21H26.96V22H27.96V21ZM27.96 10.2422V9.24219H26.96V10.2422H27.96ZM34.042 10.6113L33.3834 11.364L33.3925 11.3717L34.042 10.6113ZM34.0684 12.5625L34.6931 13.3434L34.7035 13.3349L34.0684 12.5625ZM28.9443 12.8789H27.9443V13.8789H28.9443V12.8789ZM28.9443 12.2461V11.2461H27.9443V12.2461H28.9443ZM33.6025 11.0508L32.9928 11.8434L33.0026 11.8509L33.0125 11.8582L33.6025 11.0508ZM28.5928 10.875V9.875H27.5928V10.875H28.5928ZM28.9443 13.5117V12.5117H27.9443V13.5117H28.9443ZM34.4902 12.9932L35.1456 13.7485L35.1464 13.7478L34.4902 12.9932ZM34.4639 10.1807L33.7886 10.9183L33.7938 10.9229L34.4639 10.1807ZM27.3271 9.60938V8.60938H26.3271V9.60938H27.3271ZM27.3271 21V22H28.3271V21H27.3271ZM26.6943 21H25.6943V22H26.6943V21ZM26.6943 8.97656V7.97656H25.6943V8.97656H26.6943ZM34.9121 9.74121L34.225 10.4678L34.2332 10.4754L34.9121 9.74121ZM35.3516 12.9141L34.5063 12.3796L34.5008 12.3886L35.3516 12.9141ZM34.3496 13.8369L33.8925 12.9475L31.8386 14.003L34.0137 14.7788L34.3496 13.8369ZM34.9385 17.7568L35.6075 18.5001L35.612 18.496L34.9385 17.7568ZM28.9443 18.4688H27.9443V19.4688H28.9443V18.4688ZM28.9443 17.8359V16.8359H27.9443V17.8359H28.9443ZM34.4902 17.3174L35.1456 18.0727L35.1464 18.072L34.4902 17.3174ZM33.2949 14.1357L33.3837 13.1397L33.2895 13.1313L33.1954 13.1407L33.2949 14.1357ZM28.9443 14.1445H27.9443V15.1445H28.9443V14.1445ZM36.125 13.7402L35.3728 13.0813L34.7877 13.7492L35.3817 14.4092L36.125 13.7402ZM36.4414 17.8447L35.5883 17.3229L35.5869 17.3253L36.4414 17.8447ZM34.9824 19.2422L35.4601 20.1207L35.463 20.1191L34.9824 19.2422ZM28.9443 19.7344H27.9443V20.7344H28.9443V19.7344ZM28.9443 19.1016V18.1016H27.9443V19.1016H28.9443ZM35.3779 18.1875L36.0584 18.9203L36.0619 18.917L35.3779 18.1875ZM36.0986 14.7158L35.1729 15.0939L35.1761 15.1019L35.1795 15.1097L36.0986 14.7158ZM35.3867 13.7666L34.703 13.0369L33.8109 13.8727L34.807 14.5814L35.3867 13.7666ZM35.3604 9.29297L34.6726 10.0189L34.676 10.0221L35.3604 9.29297ZM26.0615 8.34375V7.34375H25.0615V8.34375H26.0615ZM26.0615 21V22H27.0615V21H26.0615ZM25.4287 21H24.4287V22H25.4287V21ZM25.4287 7.71094V6.71094H24.4287V7.71094H25.4287ZM34.9824 8.22949L34.489 9.09933L34.4989 9.10483L34.9824 8.22949ZM36.4502 9.62695L35.5979 10.1501L35.6003 10.1539L36.4502 9.62695ZM36.8457 13.7754L36.0449 13.1765L35.5682 13.8138L36.0823 14.4213L36.8457 13.7754ZM36.9951 9.31055L36.1402 9.82936L36.1455 9.83791L36.9951 9.31055ZM35.3076 7.68457L34.8122 8.55327L34.8177 8.55634L35.3076 7.68457ZM24.7959 7.07812V6.07812H23.7959V7.07812H24.7959ZM24.7959 21V22H25.7959V21H24.7959ZM24.1631 21H23.1631V22H24.1631V21ZM24.1631 6.44531V5.44531H23.1631V6.44531H24.1631ZM35.6152 7.13086L35.1205 7.99989L35.1232 8.00142L35.6152 7.13086ZM37.54 8.99414L36.6842 9.51147L36.6888 9.51895L37.54 8.99414ZM37.5312 13.7842L36.7304 13.1853L36.2904 13.7737L36.7204 14.3694L37.5312 13.7842ZM37.8389 18.0029L38.7567 18.3998L38.758 18.3968L37.8389 18.0029ZM36.6963 19.6289L36.0263 18.8865L36.0218 18.8906L36.6963 19.6289ZM28.9443 21H27.9443V22H28.9443V21ZM28.9443 20.3672V19.3672H27.9443V20.3672H28.9443ZM34.7891 20.0244L35.1655 20.9509L35.1737 20.9475L34.7891 20.0244ZM37.25 17.6338L36.3373 17.225L36.3338 17.233L37.25 17.6338ZM37.4258 14.8301L36.4743 15.1379L36.4771 15.1464L36.48 15.1548L37.4258 14.8301ZM34.8311 15.9287C34.8311 15.5098 34.6899 14.9139 34.0964 14.5924L33.1438 16.351C33.0146 16.281 32.9209 16.1716 32.8704 16.0621C32.8271 15.9684 32.8311 15.9097 32.8311 15.9287H34.8311ZM34.1122 14.6011C33.756 14.3998 33.3522 14.3574 33.0225 14.3574V16.3574C33.1089 16.3574 33.1593 16.3639 33.1819 16.3682C33.2059 16.3728 33.1796 16.3713 33.1281 16.3422L34.1122 14.6011ZM33.0225 14.3574H28.9443V16.3574H33.0225V14.3574ZM29.9443 15.3574V14.7246H27.9443V15.3574H29.9443ZM28.9443 15.7246H33.0225V13.7246H28.9443V15.7246ZM33.0225 15.7246C33.3882 15.7246 33.4763 15.8047 33.4624 15.7931C33.4506 15.7832 33.4442 15.7705 33.445 15.7725C33.4483 15.7807 33.4639 15.8257 33.4639 15.9287H35.4639C35.4639 15.3212 35.2735 14.7 34.7446 14.2582C34.2502 13.8452 33.6176 13.7246 33.0225 13.7246V15.7246ZM33.4639 15.9287C33.4639 16.0607 33.4441 16.1208 33.4383 16.1353C33.4358 16.1413 33.4365 16.1377 33.443 16.1291C33.4497 16.1202 33.458 16.1121 33.4655 16.1064L34.6712 17.7022C35.2691 17.2504 35.4639 16.5704 35.4639 15.9287H33.4639ZM33.4655 16.1064C33.4228 16.1387 33.3063 16.2031 33.0225 16.2031V18.2031C33.6058 18.2031 34.1866 18.0683 34.6712 17.7022L33.4655 16.1064ZM33.0225 16.2031H28.9443V18.2031H33.0225V16.2031ZM29.9443 17.2031V16.5703H27.9443V17.2031H29.9443ZM28.9443 17.5703H33.0225V15.5703H28.9443V17.5703ZM33.0225 17.5703C33.3974 17.5703 33.8634 17.5004 34.2505 17.1933C34.6817 16.8511 34.8311 16.3661 34.8311 15.9287H32.8311C32.8311 15.9323 32.8304 15.8892 32.8586 15.8221C32.8893 15.7489 32.9413 15.679 33.0073 15.6266C33.0686 15.5779 33.1164 15.5646 33.1205 15.5635C33.1229 15.5628 33.0944 15.5703 33.0225 15.5703V17.5703ZM28.5928 20H27.96V22H28.5928V20ZM28.96 21V10.2422H26.96V21H28.96ZM27.96 11.2422H33.0225V9.24219H27.96V11.2422ZM33.0225 11.2422C33.1961 11.2422 33.2972 11.2884 33.3835 11.3639L34.7005 9.85875C34.2243 9.44205 33.6457 9.24219 33.0225 9.24219V11.2422ZM33.3925 11.3717C33.4365 11.4092 33.4486 11.4329 33.452 11.4402C33.4552 11.4471 33.4639 11.4674 33.4639 11.5166H35.4639C35.4639 10.8547 35.1905 10.2772 34.6915 9.85095L33.3925 11.3717ZM33.4639 11.5166C33.4639 11.6692 33.4424 11.7508 33.4296 11.7847C33.4197 11.8111 33.4179 11.8027 33.4333 11.7901L34.7035 13.3349C35.2813 12.8598 35.4639 12.1687 35.4639 11.5166H33.4639ZM33.4437 11.7816C33.4024 11.8146 33.2944 11.8789 33.0225 11.8789V13.8789C33.6177 13.8789 34.207 13.7322 34.6931 13.3434L33.4437 11.7816ZM33.0225 11.8789H28.9443V13.8789H33.0225V11.8789ZM29.9443 12.8789V12.2461H27.9443V12.8789H29.9443ZM28.9443 13.2461H33.0225V11.2461H28.9443V13.2461ZM33.0225 13.2461C33.4222 13.2461 33.9086 13.1582 34.2988 12.8062C34.7084 12.4366 34.8311 11.942 34.8311 11.5166H32.8311C32.8311 11.5484 32.8264 11.5328 32.8425 11.4892C32.8608 11.4397 32.8979 11.3764 32.9591 11.3212C33.0796 11.2124 33.1618 11.2461 33.0225 11.2461V13.2461ZM34.8311 11.5166C34.8311 11.0191 34.619 10.555 34.1926 10.2434L33.0125 11.8582C32.9701 11.8271 32.9158 11.7719 32.8761 11.6912C32.8375 11.6123 32.8311 11.5465 32.8311 11.5166H34.8311ZM34.2122 10.2582C33.8494 9.97907 33.4277 9.875 33.0225 9.875V11.875C33.0567 11.875 33.0642 11.8793 33.0533 11.876C33.0477 11.8743 33.0387 11.871 33.0273 11.8653C33.016 11.8595 33.0042 11.8521 32.9928 11.8434L34.2122 10.2582ZM33.0225 9.875H28.5928V11.875H33.0225V9.875ZM27.5928 10.875V21H29.5928V10.875H27.5928ZM28.9443 14.5117H33.0225V12.5117H28.9443V14.5117ZM33.0225 14.5117C33.8175 14.5117 34.5467 14.2681 35.1456 13.7485L33.8349 12.2378C33.6369 12.4096 33.3876 12.5117 33.0225 12.5117V14.5117ZM35.1464 13.7478C35.8092 13.1714 36.0967 12.3812 36.0967 11.5166H34.0967C34.0967 11.9177 33.9799 12.1118 33.8341 12.2386L35.1464 13.7478ZM36.0967 11.5166C36.0967 10.6896 35.739 9.98461 35.134 9.4384L33.7938 10.9229C34.0325 11.1384 34.0967 11.3241 34.0967 11.5166H36.0967ZM35.1391 9.44308C34.5459 8.89995 33.8268 8.60938 33.0225 8.60938V10.6094C33.3079 10.6094 33.5498 10.6997 33.7886 10.9182L35.1391 9.44308ZM33.0225 8.60938H27.3271V10.6094H33.0225V8.60938ZM26.3271 9.60938V21H28.3271V9.60938H26.3271ZM27.3271 20H26.6943V22H27.3271V20ZM27.6943 21V8.97656H25.6943V21H27.6943ZM26.6943 9.97656H33.0225V7.97656H26.6943V9.97656ZM33.0225 9.97656C33.4794 9.97656 33.8656 10.1279 34.225 10.4678L35.5992 9.01464C34.8805 8.33502 34.0069 7.97656 33.0225 7.97656V9.97656ZM34.2332 10.4754C34.5944 10.8094 34.7295 11.1431 34.7295 11.5166H36.7295C36.7295 10.5308 36.3197 9.68079 35.591 9.00701L34.2332 10.4754ZM34.7295 11.5166C34.7295 11.8861 34.6444 12.1613 34.5064 12.3796L36.1968 13.4485C36.5626 12.8699 36.7295 12.2135 36.7295 11.5166H34.7295ZM34.5008 12.3886C34.3516 12.63 34.1547 12.8128 33.8925 12.9475L34.8067 14.7263C35.3883 14.4275 35.8593 13.995 36.2024 13.4396L34.5008 12.3886ZM34.0137 14.7788C34.3171 14.887 34.4728 15.0231 34.5609 15.1511C34.6508 15.2817 34.7295 15.49 34.7295 15.8408H36.7295C36.7295 15.1839 36.5782 14.5542 36.2081 14.0168C35.8363 13.4769 35.3021 13.1149 34.6856 12.895L34.0137 14.7788ZM34.7295 15.8408C34.7295 16.3929 34.5588 16.75 34.265 17.0176L35.612 18.496C36.3729 17.8028 36.7295 16.8825 36.7295 15.8408H34.7295ZM34.2695 17.0135C33.9369 17.3128 33.5408 17.4688 33.0225 17.4688V19.4688C34.0041 19.4688 34.8853 19.15 35.6074 18.5001L34.2695 17.0135ZM33.0225 17.4688H28.9443V19.4688H33.0225V17.4688ZM29.9443 18.4688V17.8359H27.9443V18.4688H29.9443ZM28.9443 18.8359H33.0225V16.8359H28.9443V18.8359ZM33.0225 18.8359C33.8175 18.8359 34.5467 18.5923 35.1456 18.0727L33.8349 16.5621C33.6369 16.7338 33.3876 16.8359 33.0225 16.8359V18.8359ZM35.1464 18.072C35.8092 17.4957 36.0967 16.7054 36.0967 15.8408H34.0967C34.0967 16.2419 33.9799 16.436 33.8341 16.5628L35.1464 18.072ZM36.0967 15.8408C36.0967 15.1479 35.84 14.5301 35.3724 14.0266L33.9069 15.3875C34.0486 15.5402 34.0967 15.6782 34.0967 15.8408H36.0967ZM35.3724 14.0266C34.8508 13.4648 34.1397 13.2071 33.3837 13.1397L33.2062 15.1318C33.6337 15.1699 33.8191 15.293 33.9069 15.3875L35.3724 14.0266ZM33.1954 13.1407C33.197 13.1405 33.1842 13.1418 33.1506 13.1429C33.1189 13.1439 33.0767 13.1445 33.0225 13.1445V15.1445C33.1511 15.1445 33.2835 15.1419 33.3944 15.1308L33.1954 13.1407ZM33.0225 13.1445H28.9443V15.1445H33.0225V13.1445ZM29.9443 14.1445V13.5117H27.9443V14.1445H29.9443ZM35.9951 11.5166C35.9951 12.0759 35.8058 12.587 35.3728 13.0813L36.8772 14.3992C37.6043 13.5692 37.9951 12.5979 37.9951 11.5166H35.9951ZM35.3817 14.4092C35.8225 14.899 35.9951 15.3683 35.9951 15.8408H37.9951C37.9951 14.8016 37.5876 13.8706 36.8683 13.0713L35.3817 14.4092ZM35.9951 15.8408C35.9951 16.3959 35.8579 16.8822 35.5883 17.3229L37.2945 18.3665C37.7632 17.6002 37.9951 16.7506 37.9951 15.8408H35.9951ZM35.5869 17.3253C35.3141 17.7741 34.9563 18.1162 34.5018 18.3653L35.463 20.1191C36.2273 19.7002 36.8422 19.1107 37.2959 18.3641L35.5869 17.3253ZM34.5048 18.3636C34.0514 18.6101 33.5628 18.7344 33.0225 18.7344V20.7344C33.8883 20.7344 34.7064 20.5305 35.4601 20.1207L34.5048 18.3636ZM33.0225 18.7344H28.9443V20.7344H33.0225V18.7344ZM29.9443 19.7344V19.1016H27.9443V19.7344H29.9443ZM28.9443 20.1016H33.0225V18.1016H28.9443V20.1016ZM33.0225 20.1016C34.1831 20.1016 35.213 19.7053 36.0584 18.9203L34.6975 17.4547C34.2304 17.8884 33.6899 18.1016 33.0225 18.1016V20.1016ZM36.0619 18.917C36.9319 18.1013 37.3623 17.0493 37.3623 15.8408H35.3623C35.3623 16.5308 35.1364 17.0432 34.694 17.458L36.0619 18.917ZM37.3623 15.8408C37.3623 15.3303 37.231 14.8194 37.0178 14.3219L35.1795 15.1097C35.3178 15.4325 35.3623 15.6716 35.3623 15.8408H37.3623ZM37.0244 14.3377C36.7974 13.782 36.4542 13.2988 35.9665 12.9518L34.807 14.5814C34.9286 14.6679 35.06 14.8176 35.1729 15.0939L37.0244 14.3377ZM36.0704 14.4963C36.9225 13.6981 37.3623 12.684 37.3623 11.5166H35.3623C35.3623 12.1305 35.1518 12.6164 34.703 13.0369L36.0704 14.4963ZM37.3623 11.5166C37.3623 10.3638 36.8981 9.36483 36.0447 8.56383L34.676 10.0221C35.1585 10.475 35.3623 10.9585 35.3623 11.5166H37.3623ZM36.0481 8.56702C35.2012 7.76469 34.1782 7.34375 33.0225 7.34375V9.34375C33.648 9.34375 34.1836 9.55562 34.6726 10.0189L36.0481 8.56702ZM33.0225 7.34375H26.0615V9.34375H33.0225V7.34375ZM25.0615 8.34375V21H27.0615V8.34375H25.0615ZM26.0615 20H25.4287V22H26.0615V20ZM26.4287 21V7.71094H24.4287V21H26.4287ZM25.4287 8.71094H33.0225V6.71094H25.4287V8.71094ZM33.0225 8.71094C33.5459 8.71094 34.0293 8.83849 34.489 9.09928L35.4759 7.35971C34.7168 6.92909 33.8936 6.71094 33.0225 6.71094V8.71094ZM34.4989 9.10483C34.9648 9.36218 35.3262 9.70746 35.598 10.1501L37.3024 9.1038C36.8476 8.36285 36.2305 7.7765 35.4659 7.35416L34.4989 9.10483ZM35.6003 10.1539C35.8679 10.5854 35.9951 11.0335 35.9951 11.5166H37.9951C37.9951 10.6521 37.7591 9.84034 37.3001 9.10001L35.6003 10.1539ZM37.6465 14.3743C38.2868 13.5182 38.6279 12.5581 38.6279 11.5166H36.6279C36.6279 12.0923 36.4476 12.638 36.0449 13.1765L37.6465 14.3743ZM38.6279 11.5166C38.6279 10.537 38.3637 9.61932 37.8448 8.78318L36.1455 9.83791C36.4702 10.3612 36.6279 10.9142 36.6279 11.5166H38.6279ZM37.85 8.79176C37.3434 7.95694 36.6543 7.29429 35.7975 6.8128L34.8177 8.55634C35.3789 8.87173 35.8148 9.29306 36.1402 9.82933L37.85 8.79176ZM35.803 6.81589C34.9434 6.32572 34.011 6.07812 33.0225 6.07812V8.07812C33.6628 8.07812 34.2538 8.23483 34.8123 8.55325L35.803 6.81589ZM33.0225 6.07812H24.7959V8.07812H33.0225V6.07812ZM23.7959 7.07812V21H25.7959V7.07812H23.7959ZM24.7959 20H24.1631V22H24.7959V20ZM25.1631 21V6.44531H23.1631V21H25.1631ZM24.1631 7.44531H33.0225V5.44531H24.1631V7.44531ZM33.0225 7.44531C33.7752 7.44531 34.4689 7.62889 35.1205 7.99988L36.11 6.26184C35.1561 5.71876 34.1213 5.44531 33.0225 5.44531V7.44531ZM35.1232 8.00142C35.7841 8.375 36.2997 8.87524 36.6842 9.51145L38.3958 8.47683C37.8312 7.54273 37.0635 6.80078 36.1073 6.2603L35.1232 8.00142ZM36.6888 9.51895C37.0735 10.1429 37.2607 10.8024 37.2607 11.5166H39.2607C39.2607 10.4261 38.9675 9.40396 38.3913 8.46933L36.6888 9.51895ZM37.2607 11.5166C37.2607 12.176 37.0793 12.7187 36.7304 13.1853L38.3321 14.383C38.9558 13.5489 39.2607 12.5799 39.2607 11.5166H37.2607ZM36.7204 14.3694C37.108 14.9064 37.2607 15.3915 37.2607 15.8408H39.2607C39.2607 14.8956 38.9272 14.0096 38.3421 13.1989L36.7204 14.3694ZM37.2607 15.8408C37.2607 16.5041 37.1425 17.0891 36.9197 17.609L38.758 18.3968C39.0977 17.6042 39.2607 16.7478 39.2607 15.8408H37.2607ZM36.921 17.606C36.6912 18.1374 36.3906 18.5578 36.0263 18.8865L37.3663 20.3713C37.9629 19.8328 38.424 19.1692 38.7567 18.3998L36.921 17.606ZM36.0218 18.8906C35.6452 19.2346 35.2014 19.5069 34.6802 19.7047L35.3901 21.5745C36.1345 21.2919 36.7981 20.8904 37.3708 20.3672L36.0218 18.8906ZM34.6802 19.7047C34.1661 19.8999 33.616 20 33.0225 20V22C33.8469 22 34.6386 21.8598 35.3901 21.5745L34.6802 19.7047ZM33.0225 20H28.9443V22H33.0225V20ZM29.9443 21V20.3672H27.9443V21H29.9443ZM28.9443 21.3672H33.0225V19.3672H28.9443V21.3672ZM33.0225 21.3672C33.765 21.3672 34.4818 21.2286 35.1654 20.9509L34.4127 19.0979C33.9713 19.2772 33.5104 19.3672 33.0225 19.3672V21.3672ZM35.1737 20.9475C35.8434 20.6684 36.4383 20.286 36.9485 19.7974L35.5652 18.353C35.2433 18.6613 34.8597 18.9116 34.4044 19.1013L35.1737 20.9475ZM36.9485 19.7974C37.466 19.3018 37.8707 18.7099 38.1662 18.0346L36.3338 17.233C36.1371 17.6826 35.8797 18.0517 35.5652 18.353L36.9485 19.7974ZM38.1626 18.0426C38.4737 17.348 38.6279 16.6107 38.6279 15.8408H36.6279C36.6279 16.3366 36.5302 16.7946 36.3374 17.225L38.1626 18.0426ZM38.6279 15.8408C38.6279 15.4099 38.5268 14.9575 38.3716 14.5054L36.48 15.1548C36.5943 15.4878 36.6279 15.7092 36.6279 15.8408H38.6279ZM38.3772 14.5223C38.2102 14.0061 37.9551 13.5384 37.6091 13.1294L36.0823 14.4213C36.2519 14.6218 36.3835 14.8571 36.4743 15.1379L38.3772 14.5223Z" fill="black"/>
</svg>
