<svg width="531" height="56" viewBox="0 0 531 56" fill="none" xmlns="http://www.w3.org/2000/svg">
<g filter="url(#filter0_dd_7_23)">
<path d="M23.8457 25.4062L22.8262 26.1797C21.8066 24.9141 20.4941 24.2812 18.8887 24.2812C17.4941 24.2812 16.2988 24.7793 15.3027 25.7754C14.3184 26.7598 13.8262 27.9492 13.8262 29.3438C13.8262 30.7383 14.3184 31.9336 15.3027 32.9297C16.2988 33.9141 17.4941 34.4062 18.8887 34.4062C19.6738 34.4062 20.4062 34.2363 21.0859 33.8965C21.7773 33.5566 22.3633 33.0879 22.8438 32.4902L23.8281 33.3164C23.2422 34.0547 22.5156 34.6348 21.6484 35.0566C20.7812 35.4668 19.8613 35.6719 18.8887 35.6719C17.1426 35.6719 15.6484 35.0566 14.4062 33.8262C13.1758 32.584 12.5605 31.0898 12.5605 29.3438C12.5605 27.5977 13.1758 26.1094 14.4062 24.8789C15.6484 23.6367 17.1426 23.0156 18.8887 23.0156C19.873 23.0156 20.7988 23.2324 21.666 23.666C22.5332 24.0879 23.2598 24.668 23.8457 25.4062ZM25.8145 23.8242L24.8125 24.5977C24.1094 23.707 23.2363 23.0098 22.1934 22.5059C21.1621 22.002 20.0605 21.75 18.8887 21.75C16.791 21.75 14.998 22.4941 13.5098 23.9824C12.0332 25.4707 11.2949 27.2578 11.2949 29.3438C11.2949 31.4297 12.0332 33.2168 13.5098 34.7051C14.998 36.1934 16.791 36.9375 18.8887 36.9375C20.0605 36.9375 21.168 36.6855 22.2109 36.1816C23.2539 35.666 24.127 34.9629 24.8301 34.0723L25.7969 34.8809C24.9766 35.9121 23.9629 36.7266 22.7559 37.3242C21.5488 37.9102 20.2598 38.2031 18.8887 38.2031C17.2832 38.2031 15.8008 37.8105 14.4414 37.0254C13.082 36.2285 12.0039 35.1504 11.207 33.791C10.4219 32.4316 10.0293 30.9492 10.0293 29.3438C10.0293 27.7383 10.4219 26.2559 11.207 24.8965C12.0039 23.5371 13.082 22.4648 14.4414 21.6797C15.8008 20.8828 17.2832 20.4844 18.8887 20.4844C20.2598 20.4844 21.5488 20.7832 22.7559 21.3809C23.9746 21.9668 24.9941 22.7812 25.8145 23.8242ZM27.8008 22.2422L26.8164 23.0332C25.8672 21.8496 24.7012 20.918 23.3184 20.2383C21.9355 19.5586 20.459 19.2188 18.8887 19.2188C17.5176 19.2188 16.2051 19.4883 14.9512 20.0273C13.709 20.5547 12.6309 21.2754 11.7168 22.1895C10.8145 23.0918 10.0938 24.1699 9.55469 25.4238C9.02734 26.666 8.76367 27.9727 8.76367 29.3438C8.76367 30.7148 9.02734 32.0273 9.55469 33.2812C10.0938 34.5234 10.8145 35.6016 11.7168 36.5156C12.6309 37.418 13.709 38.1387 14.9512 38.6777C16.2051 39.2051 17.5176 39.4688 18.8887 39.4688C20.459 39.4688 21.9355 39.1289 23.3184 38.4492C24.7012 37.7695 25.8672 36.8379 26.8164 35.6543L27.7656 36.4805C26.6992 37.8047 25.3926 38.8477 23.8457 39.6094C22.2988 40.3594 20.6465 40.7344 18.8887 40.7344C17.3418 40.7344 15.8652 40.4355 14.459 39.8379C13.0527 39.2285 11.8398 38.4199 10.8203 37.4121C9.8125 36.3926 9.00391 35.1797 8.39453 33.7734C7.79688 32.3672 7.49805 30.8906 7.49805 29.3438C7.49805 27.7969 7.79688 26.3203 8.39453 24.9141C9.00391 23.5078 9.8125 22.3008 10.8203 21.293C11.8398 20.2734 13.0527 19.4648 14.459 18.8672C15.8652 18.2578 17.3418 17.9531 18.8887 17.9531C20.6582 17.9531 22.3164 18.334 23.8633 19.0957C25.4219 19.8574 26.7344 20.9062 27.8008 22.2422ZM29.7695 20.6602L28.75 21.416C27.5664 19.9512 26.1133 18.7969 24.3906 17.9531C22.6797 17.1094 20.8457 16.6875 18.8887 16.6875C17.1777 16.6875 15.5371 17.0215 13.9668 17.6895C12.4082 18.3574 11.0605 19.2598 9.92383 20.3965C8.79883 21.5215 7.90234 22.8691 7.23438 24.4395C6.56641 25.998 6.23242 27.6328 6.23242 29.3438C6.23242 31.0547 6.56641 32.6953 7.23438 34.2656C7.90234 35.8242 8.79883 37.1719 9.92383 38.3086C11.0605 39.4336 12.4082 40.3301 13.9668 40.998C15.5371 41.666 17.1777 42 18.8887 42C20.8457 42 22.6797 41.5781 24.3906 40.7344C26.1133 39.8906 27.5664 38.7363 28.75 37.2715L29.752 38.0449C28.4512 39.6621 26.8516 40.9395 24.9531 41.877C23.0664 42.8027 21.0449 43.2656 18.8887 43.2656C17.002 43.2656 15.1973 42.8965 13.4746 42.1582C11.7637 41.4199 10.2871 40.4297 9.04492 39.1875C7.80273 37.9453 6.8125 36.4688 6.07422 34.7578C5.33594 33.0352 4.9668 31.2305 4.9668 29.3438C4.9668 27.457 5.33594 25.6582 6.07422 23.9473C6.8125 22.2246 7.80273 20.7422 9.04492 19.5C10.2871 18.2578 11.7637 17.2676 13.4746 16.5293C15.1973 15.791 17.002 15.4219 18.8887 15.4219C21.0449 15.4219 23.0723 15.8906 24.9707 16.8281C26.8691 17.7539 28.4688 19.0312 29.7695 20.6602ZM327.525 29.2031L327.49 29.1855C328.814 27.8965 329.477 26.3262 329.477 24.4746C329.477 22.7168 328.82 21.1934 327.508 19.9043C326.207 18.6035 324.666 17.9531 322.885 17.9531H308.963V42H307.697V16.6875H322.885C324.268 16.6875 325.562 17.0449 326.77 17.7598C327.988 18.4629 328.955 19.418 329.67 20.625C330.385 21.8203 330.742 23.1035 330.742 24.4746C330.742 26.3496 330.238 27.9609 329.23 29.3086C330.238 30.7031 330.742 32.2383 330.742 33.9141C330.742 35.5195 330.379 36.9375 329.652 38.168C328.926 39.3867 327.971 40.3066 326.787 40.9277C325.615 41.5488 324.314 41.8594 322.885 41.8594H314.887V40.5938H322.885C324.689 40.5938 326.236 39.9551 327.525 38.6777C328.826 37.3887 329.477 35.8008 329.477 33.9141C329.477 33.0469 329.289 32.1914 328.914 31.3477C328.539 30.5039 328.07 29.7949 327.508 29.2207C327.508 29.209 327.514 29.2031 327.525 29.2031ZM322.885 35.5312H314.887V36.7969H322.885C323.658 36.7969 324.314 36.5391 324.854 36.0234C325.404 35.4961 325.68 34.793 325.68 33.9141C325.68 33.1523 325.398 32.4844 324.836 31.9102C324.273 31.3242 323.623 31.0312 322.885 31.0312H314.869V32.2969H322.885C323.283 32.2969 323.635 32.4609 323.939 32.7891C324.256 33.1172 324.414 33.4922 324.414 33.9141C324.414 34.4297 324.268 34.8281 323.975 35.1094C323.682 35.3906 323.318 35.5312 322.885 35.5312ZM322.885 38.0625H314.887V39.3281H322.885C324.338 39.3281 325.586 38.8125 326.629 37.7812C327.684 36.7383 328.211 35.4492 328.211 33.9141C328.211 32.9414 327.947 32.0273 327.42 31.1719C326.904 30.3047 326.219 29.6367 325.363 29.168C326.219 28.7227 326.904 28.0898 327.42 27.2695C327.947 26.4375 328.211 25.5059 328.211 24.4746C328.211 23.0684 327.678 21.8438 326.611 20.8008C325.557 19.7461 324.314 19.2188 322.885 19.2188H310.229V42H311.494V20.4844H322.885C323.963 20.4844 324.906 20.8887 325.715 21.6973C326.535 22.4941 326.945 23.4199 326.945 24.4746C326.945 25.6465 326.547 26.6133 325.75 27.375C324.953 28.125 323.998 28.5 322.885 28.5H319.018H314.887V29.7656H319.018H322.885C323.963 29.7656 324.906 30.1816 325.715 31.0137C326.535 31.8457 326.945 32.8125 326.945 33.9141C326.945 35.1328 326.547 36.1289 325.75 36.9023C324.953 37.6758 323.998 38.0625 322.885 38.0625ZM322.885 25.9688H314.887V27.2344H322.885C323.67 27.2344 324.332 26.9883 324.871 26.4961C325.41 25.9922 325.68 25.3184 325.68 24.4746C325.68 23.7598 325.398 23.127 324.836 22.5762C324.273 22.0254 323.623 21.75 322.885 21.75H312.76V42H314.025V23.0156H322.885C323.283 23.0156 323.635 23.168 323.939 23.4727C324.256 23.7656 324.414 24.0996 324.414 24.4746C324.414 24.9551 324.268 25.3242 323.975 25.582C323.682 25.8398 323.318 25.9688 322.885 25.9688Z" fill="#A76AF3"/>
<path d="M57.5078 16.6875H58.7734V42H57.5078V16.6875ZM32.1777 16.6875H33.4434V42H32.1777V16.6875ZM54.9766 16.6875H56.2422V42H54.9766V16.6875ZM52.4453 16.6875H53.7109V42H52.4453V16.6875ZM49.9141 16.6875H51.1797V42H49.9141V31.875H41.0371V42H39.7715V16.6875H41.0371V25.5469H49.9141V16.6875ZM37.2402 16.6875H38.5059V42H37.2402V16.6875ZM34.709 16.6875H35.9746V42H34.709V16.6875ZM49.9141 30.6094V29.3438H41.0371V30.6094H49.9141ZM49.9141 28.0781V26.8125H41.0371V28.0781H49.9141ZM71.6582 29.9062H79.2871C80.2949 29.9062 81.1504 29.5898 81.8535 28.957C82.5566 28.3242 82.9082 27.4336 82.9082 26.2852C82.9082 25.4414 82.5391 24.6855 81.8008 24.0176C81.0742 23.3496 80.2363 23.0156 79.2871 23.0156H68.4238V42H67.1582V21.75H79.2871C80.5879 21.75 81.7246 22.207 82.6973 23.1211C83.6816 24.0352 84.1738 25.0898 84.1738 26.2852C84.1738 27.7734 83.6992 28.9629 82.75 29.8535C81.8008 30.7324 80.6465 31.1719 79.2871 31.1719H71.6582V29.9062ZM71.6582 32.4375H79.2871C80.9746 32.4375 82.4219 31.8633 83.6289 30.7148C84.8359 29.5664 85.4395 28.0898 85.4395 26.2852C85.4395 24.75 84.8242 23.4023 83.5938 22.2422C82.3633 21.0703 80.9277 20.4844 79.2871 20.4844H65.8926V42H64.627V19.2188H79.2871C81.2793 19.2188 83.0137 19.9277 84.4902 21.3457C85.9668 22.752 86.7051 24.3984 86.7051 26.2852C86.7051 28.3945 85.9727 30.1582 84.5078 31.5762C83.0547 32.9941 81.3145 33.7031 79.2871 33.7031H71.6582V32.4375ZM71.6582 34.9688H79.2871C80.8457 34.9688 82.2871 34.5938 83.6113 33.8438C84.9355 33.0938 85.9902 32.0508 86.7754 30.7148C87.5723 29.3789 87.9707 27.9023 87.9707 26.2852C87.9707 24.8203 87.5781 23.4492 86.793 22.1719C86.0078 20.8828 84.9414 19.8574 83.5938 19.0957C82.2578 18.334 80.8223 17.9531 79.2871 17.9531H63.3613V42H62.0957V16.6875H79.2871C80.6113 16.6875 81.8828 16.9512 83.1016 17.4785C84.332 17.9941 85.3926 18.6855 86.2832 19.5527C87.1738 20.4082 87.8887 21.4277 88.4277 22.6113C88.9668 23.7949 89.2363 25.0195 89.2363 26.2852C89.2363 28.3359 88.7676 30.1289 87.8301 31.6641C86.8926 33.1875 85.6328 34.3477 84.0508 35.1445L86.7051 42H85.3516L82.8379 35.6543C82.5215 35.7598 82.1523 35.8652 81.7305 35.9707L84.1035 42H82.75L80.4297 36.1816C80.0664 36.2168 79.6855 36.2344 79.2871 36.2344L81.5195 42H80.1836L77.9688 36.2344H76.8262L78.9531 42H77.6172L75.4727 36.2344H71.6582V34.9688ZM70.9551 42H69.6895V24.2812H79.2871C79.9434 24.2812 80.5 24.4805 80.957 24.8789C81.4141 25.2656 81.6426 25.7344 81.6426 26.2852C81.6426 27.8555 80.8574 28.6406 79.2871 28.6406H71.6582V27.375H79.2871C80.0137 27.375 80.377 27.0117 80.377 26.2852C80.377 26.0859 80.2656 25.916 80.043 25.7754C79.832 25.623 79.5801 25.5469 79.2871 25.5469H70.9551V42ZM99.6426 16.6875H100.908V42H99.6426V16.6875ZM97.1113 16.6875H98.377V42H97.1113V16.6875ZM94.5801 16.6875H95.8457V42H94.5801V16.6875ZM92.0488 16.6875H93.3145V42H92.0488V16.6875ZM115.85 29.959H113.846C111.385 29.959 109.492 29.4609 108.168 28.4648C106.844 27.457 106.182 26.0742 106.182 24.3164C106.182 22.6758 106.961 21.3105 108.52 20.2207C110.078 19.1191 112.264 18.5684 115.076 18.5684C116.951 18.5684 118.697 18.8262 120.314 19.3418C121.943 19.8574 123.297 20.584 124.375 21.5215L123.391 22.3125C122.43 21.5273 121.223 20.918 119.77 20.4844C118.316 20.0508 116.752 19.834 115.076 19.834C112.604 19.834 110.711 20.2559 109.398 21.0996C108.098 21.9434 107.447 23.0156 107.447 24.3164C107.447 25.7227 107.98 26.8066 109.047 27.5684C110.125 28.3184 111.725 28.6934 113.846 28.6934H115.779C118.275 28.6934 120.186 29.1973 121.51 30.2051C122.846 31.2012 123.514 32.5781 123.514 34.3359C123.514 35.9766 122.734 37.3477 121.176 38.4492C119.617 39.5391 117.432 40.084 114.619 40.084C112.744 40.084 110.992 39.8262 109.363 39.3105C107.746 38.7949 106.398 38.0684 105.32 37.1309L106.305 36.3398C107.266 37.125 108.473 37.7344 109.926 38.168C111.379 38.6016 112.943 38.8184 114.619 38.8184C117.092 38.8184 118.979 38.3965 120.279 37.5527C121.592 36.709 122.248 35.6367 122.248 34.3359C122.248 32.9297 121.709 31.8516 120.631 31.1016C119.564 30.3398 117.971 29.959 115.85 29.959ZM115.85 32.4902H113.846C110.588 32.4902 108.074 31.752 106.305 30.2754C104.535 28.7871 103.65 26.8008 103.65 24.3164C103.65 23.1797 103.902 22.1133 104.406 21.1172C104.91 20.1211 105.631 19.248 106.568 18.498C107.518 17.7363 108.725 17.1387 110.189 16.7051C111.654 16.2598 113.283 16.0371 115.076 16.0371C117.338 16.0371 119.453 16.3828 121.422 17.0742C123.391 17.7539 125.031 18.709 126.344 19.9395L125.324 20.6953C124.129 19.6172 122.635 18.7852 120.842 18.1992C119.049 17.6016 117.127 17.3027 115.076 17.3027C111.912 17.3027 109.428 17.9707 107.623 19.3066C105.818 20.6426 104.916 22.3125 104.916 24.3164C104.916 26.4375 105.689 28.1191 107.236 29.3613C108.783 30.6035 110.986 31.2246 113.846 31.2246H115.779C119.248 31.2246 120.982 32.2617 120.982 34.3359C120.982 35.2734 120.449 36.0469 119.383 36.6562C118.328 37.2539 116.74 37.5527 114.619 37.5527C113.131 37.5527 111.748 37.3828 110.471 37.043C109.193 36.6914 108.139 36.1934 107.307 35.5488L108.309 34.7754C109.773 35.7832 111.877 36.2871 114.619 36.2871C116.377 36.2871 117.666 36.1055 118.486 35.7422C119.307 35.3789 119.717 34.9102 119.717 34.3359C119.717 33.668 119.43 33.1934 118.855 32.9121C118.281 32.6309 117.279 32.4902 115.85 32.4902ZM115.85 27.4277H113.846C110.424 27.4277 108.713 26.3906 108.713 24.3164C108.713 23.3789 109.24 22.6113 110.295 22.0137C111.361 21.4043 112.955 21.0996 115.076 21.0996C116.564 21.0996 117.947 21.2754 119.225 21.627C120.502 21.9668 121.557 22.459 122.389 23.1035L121.387 23.877C119.922 22.8691 117.818 22.3652 115.076 22.3652C113.318 22.3652 112.029 22.5469 111.209 22.9102C110.389 23.2734 109.979 23.7422 109.979 24.3164C109.979 24.9844 110.266 25.459 110.84 25.7402C111.414 26.0215 112.416 26.1621 113.846 26.1621H115.85C119.107 26.1621 121.621 26.9062 123.391 28.3945C125.16 29.8711 126.045 31.8516 126.045 34.3359C126.045 35.4727 125.793 36.5391 125.289 37.5352C124.785 38.5312 124.059 39.4102 123.109 40.1719C122.172 40.9219 120.971 41.5195 119.506 41.9648C118.041 42.3984 116.412 42.6152 114.619 42.6152C112.357 42.6152 110.242 42.2754 108.273 41.5957C106.305 40.9043 104.664 39.9434 103.352 38.7129L104.371 37.957C105.566 39.0352 107.061 39.873 108.854 40.4707C110.646 41.0566 112.568 41.3496 114.619 41.3496C117.783 41.3496 120.268 40.6816 122.072 39.3457C123.877 38.0098 124.779 36.3398 124.779 34.3359C124.779 32.2148 124.006 30.5332 122.459 29.291C120.912 28.0488 118.709 27.4277 115.85 27.4277ZM133.305 23.7012H134.57V42H133.305V23.7012ZM128.242 17.9531V16.6875H147.227V17.9531H128.242ZM128.242 20.4844V19.2188H147.227V20.4844H128.242ZM128.242 23.0156V21.75H147.227V23.0156H128.242ZM140.898 23.7012H142.164V42H140.898V23.7012ZM138.367 23.7012H139.633V42H138.367V23.7012ZM135.836 23.7012H137.102V42H135.836V23.7012ZM159.689 25.7754C158.705 26.7598 158.213 27.9492 158.213 29.3438C158.213 30.7383 158.705 31.9336 159.689 32.9297C160.686 33.9141 161.881 34.4062 163.275 34.4062C164.67 34.4062 165.859 33.9141 166.844 32.9297C167.84 31.9336 168.338 30.7383 168.338 29.3438C168.338 27.9492 167.84 26.7598 166.844 25.7754C165.859 24.7793 164.67 24.2812 163.275 24.2812C161.881 24.2812 160.686 24.7793 159.689 25.7754ZM158.793 33.8262C157.562 32.584 156.947 31.0898 156.947 29.3438C156.947 27.5977 157.562 26.1094 158.793 24.8789C160.035 23.6367 161.529 23.0156 163.275 23.0156C165.021 23.0156 166.51 23.6367 167.74 24.8789C168.982 26.1094 169.604 27.5977 169.604 29.3438C169.604 31.0898 168.982 32.584 167.74 33.8262C166.51 35.0566 165.021 35.6719 163.275 35.6719C161.529 35.6719 160.035 35.0566 158.793 33.8262ZM157.896 23.9824C156.42 25.4707 155.682 27.2578 155.682 29.3438C155.682 31.4297 156.42 33.2168 157.896 34.7051C159.385 36.1934 161.178 36.9375 163.275 36.9375C165.373 36.9375 167.16 36.1934 168.637 34.7051C170.125 33.2168 170.869 31.4297 170.869 29.3438C170.869 27.2578 170.125 25.4707 168.637 23.9824C167.16 22.4941 165.373 21.75 163.275 21.75C161.178 21.75 159.385 22.4941 157.896 23.9824ZM155.594 33.791C154.809 32.4316 154.416 30.9492 154.416 29.3438C154.416 27.7383 154.809 26.2559 155.594 24.8965C156.391 23.5371 157.469 22.4648 158.828 21.6797C160.188 20.8828 161.67 20.4844 163.275 20.4844C164.881 20.4844 166.363 20.8828 167.723 21.6797C169.082 22.4648 170.154 23.5371 170.939 24.8965C171.736 26.2559 172.135 27.7383 172.135 29.3438C172.135 30.9492 171.736 32.4316 170.939 33.791C170.154 35.1504 169.082 36.2285 167.723 37.0254C166.363 37.8105 164.881 38.2031 163.275 38.2031C161.67 38.2031 160.188 37.8105 158.828 37.0254C157.469 36.2285 156.391 35.1504 155.594 33.791ZM153.941 25.4238C153.414 26.666 153.15 27.9727 153.15 29.3438C153.15 30.7148 153.414 32.0273 153.941 33.2812C154.48 34.5234 155.201 35.6016 156.104 36.5156C157.018 37.418 158.096 38.1387 159.338 38.6777C160.592 39.2051 161.904 39.4688 163.275 39.4688C164.646 39.4688 165.953 39.2051 167.195 38.6777C168.449 38.1387 169.527 37.418 170.43 36.5156C171.344 35.6016 172.064 34.5234 172.592 33.2812C173.131 32.0273 173.4 30.7148 173.4 29.3438C173.4 27.9727 173.131 26.666 172.592 25.4238C172.064 24.1699 171.344 23.0918 170.43 22.1895C169.527 21.2754 168.449 20.5547 167.195 20.0273C165.953 19.4883 164.646 19.2188 163.275 19.2188C161.904 19.2188 160.592 19.4883 159.338 20.0273C158.096 20.5547 157.018 21.2754 156.104 22.1895C155.201 23.0918 154.48 24.1699 153.941 25.4238ZM152.781 33.7734C152.184 32.3672 151.885 30.8906 151.885 29.3438C151.885 27.7969 152.184 26.3203 152.781 24.9141C153.391 23.5078 154.199 22.3008 155.207 21.293C156.227 20.2734 157.439 19.4648 158.846 18.8672C160.252 18.2578 161.729 17.9531 163.275 17.9531C164.822 17.9531 166.299 18.2578 167.705 18.8672C169.111 19.4648 170.318 20.2734 171.326 21.293C172.346 22.3008 173.154 23.5078 173.752 24.9141C174.361 26.3203 174.666 27.7969 174.666 29.3438C174.666 30.8906 174.361 32.3672 173.752 33.7734C173.154 35.1797 172.346 36.3926 171.326 37.4121C170.318 38.4199 169.111 39.2285 167.705 39.8379C166.299 40.4355 164.822 40.7344 163.275 40.7344C161.729 40.7344 160.252 40.4355 158.846 39.8379C157.439 39.2285 156.227 38.4199 155.207 37.4121C154.199 36.3926 153.391 35.1797 152.781 33.7734ZM151.621 24.4395C150.953 25.998 150.619 27.6328 150.619 29.3438C150.619 31.0547 150.953 32.6953 151.621 34.2656C152.289 35.8242 153.186 37.1719 154.311 38.3086C155.447 39.4336 156.795 40.3301 158.354 40.998C159.924 41.666 161.564 42 163.275 42C164.986 42 166.621 41.666 168.18 40.998C169.75 40.3301 171.098 39.4336 172.223 38.3086C173.359 37.1719 174.262 35.8242 174.93 34.2656C175.598 32.6953 175.932 31.0547 175.932 29.3438C175.932 27.6328 175.598 25.998 174.93 24.4395C174.262 22.8691 173.359 21.5215 172.223 20.3965C171.098 19.2598 169.75 18.3574 168.18 17.6895C166.621 17.0215 164.986 16.6875 163.275 16.6875C161.564 16.6875 159.924 17.0215 158.354 17.6895C156.795 18.3574 155.447 19.2598 154.311 20.3965C153.186 21.5215 152.289 22.8691 151.621 24.4395ZM150.461 34.7578C149.723 33.0352 149.354 31.2305 149.354 29.3438C149.354 27.457 149.723 25.6582 150.461 23.9473C151.199 22.2246 152.189 20.7422 153.432 19.5C154.674 18.2578 156.15 17.2676 157.861 16.5293C159.584 15.791 161.389 15.4219 163.275 15.4219C165.162 15.4219 166.961 15.791 168.672 16.5293C170.395 17.2676 171.877 18.2578 173.119 19.5C174.361 20.7422 175.352 22.2246 176.09 23.9473C176.828 25.6582 177.197 27.457 177.197 29.3438C177.197 31.2305 176.828 33.0352 176.09 34.7578C175.352 36.4688 174.361 37.9453 173.119 39.1875C171.877 40.4297 170.395 41.4199 168.672 42.1582C166.961 42.8965 165.162 43.2656 163.275 43.2656C161.389 43.2656 159.584 42.8965 157.861 42.1582C156.15 41.4199 154.674 40.4297 153.432 39.1875C152.189 37.9453 151.199 36.4688 150.461 34.7578ZM189.871 30.082H195.232C196.287 30.082 197.184 29.7656 197.922 29.1328C198.66 28.5 199.029 27.6094 199.029 26.4609C199.029 25.5703 198.643 24.7734 197.869 24.0703C197.096 23.3672 196.217 23.0156 195.232 23.0156H186.373V42H185.107V21.75H195.232C196.58 21.75 197.758 22.2246 198.766 23.1738C199.785 24.123 200.295 25.2188 200.295 26.4609C200.295 27.9492 199.803 29.1387 198.818 30.0293C197.834 30.9082 196.639 31.3477 195.232 31.3477H189.871V30.082ZM189.871 32.6133H195.232C196.967 32.6133 198.455 32.0391 199.697 30.8906C200.939 29.7422 201.561 28.2656 201.561 26.4609C201.561 24.8789 200.928 23.4902 199.662 22.2949C198.396 21.0879 196.92 20.4844 195.232 20.4844H183.842V42H182.576V19.2188H195.232C197.271 19.2188 199.047 19.9453 200.559 21.3984C202.07 22.8398 202.826 24.5273 202.826 26.4609C202.826 28.5703 202.076 30.334 200.576 31.752C199.088 33.1699 197.307 33.8789 195.232 33.8789H189.871V32.6133ZM189.871 35.1445H195.232C196.814 35.1445 198.279 34.7695 199.627 34.0195C200.986 33.2695 202.07 32.2266 202.879 30.8906C203.688 29.5547 204.092 28.0781 204.092 26.4609C204.092 24.9727 203.688 23.5723 202.879 22.2598C202.082 20.9473 200.998 19.9043 199.627 19.1309C198.268 18.3457 196.803 17.9531 195.232 17.9531H181.311V42H180.045V16.6875H195.232C196.568 16.6875 197.857 16.9512 199.1 17.4785C200.354 18.0059 201.438 18.7148 202.352 19.6055C203.266 20.4844 203.992 21.5273 204.531 22.7344C205.082 23.9297 205.357 25.1719 205.357 26.4609C205.357 27.9727 205.088 29.3613 204.549 30.627C204.01 31.8926 203.277 32.9473 202.352 33.791C201.426 34.623 200.348 35.2676 199.117 35.7246C197.898 36.1816 196.604 36.4102 195.232 36.4102H189.871V35.1445ZM188.904 42H187.639V24.2812H195.232C195.924 24.2812 196.516 24.498 197.008 24.9316C197.512 25.3535 197.764 25.8633 197.764 26.4609C197.764 28.0312 196.92 28.8164 195.232 28.8164H189.871V27.5508H195.232C196.076 27.5508 196.498 27.1875 196.498 26.4609C196.498 26.2031 196.375 25.9863 196.129 25.8105C195.883 25.6348 195.584 25.5469 195.232 25.5469H188.904V42ZM233.535 16.6875H234.801V42H233.535V16.6875ZM208.205 16.6875H209.471V42H208.205V16.6875ZM231.004 16.6875H232.27V42H231.004V16.6875ZM228.473 16.6875H229.738V42H228.473V16.6875ZM225.941 16.6875H227.207V42H225.941V31.875H217.064V42H215.799V16.6875H217.064V25.5469H225.941V16.6875ZM213.268 16.6875H214.533V42H213.268V16.6875ZM210.736 16.6875H212.002V42H210.736V16.6875ZM225.941 30.6094V29.3438H217.064V30.6094H225.941ZM225.941 28.0781V26.8125H217.064V28.0781H225.941ZM244.451 42H243.186V16.6875H244.451V42ZM241.92 42H240.654V16.6875H241.92V42ZM239.389 42H238.123V16.6875H239.389V42ZM246.982 35.6719H259.094V36.9375H246.982V38.2031H259.094V39.4688H246.982V40.7344H259.094V42H245.717V16.6875H259.094V17.9531H246.982V19.2188H259.094V20.4844H246.982V21.75H259.094V23.0156H246.982V26.1621H258.391V27.4277H246.982V28.6934H258.391V29.959H246.982V31.2246H258.391V32.4902H246.982V35.6719ZM271.697 29.9062H279.326C280.334 29.9062 281.189 29.5898 281.893 28.957C282.596 28.3242 282.947 27.4336 282.947 26.2852C282.947 25.4414 282.578 24.6855 281.84 24.0176C281.113 23.3496 280.275 23.0156 279.326 23.0156H268.463V42H267.197V21.75H279.326C280.627 21.75 281.764 22.207 282.736 23.1211C283.721 24.0352 284.213 25.0898 284.213 26.2852C284.213 27.7734 283.738 28.9629 282.789 29.8535C281.84 30.7324 280.686 31.1719 279.326 31.1719H271.697V29.9062ZM271.697 32.4375H279.326C281.014 32.4375 282.461 31.8633 283.668 30.7148C284.875 29.5664 285.479 28.0898 285.479 26.2852C285.479 24.75 284.863 23.4023 283.633 22.2422C282.402 21.0703 280.967 20.4844 279.326 20.4844H265.932V42H264.666V19.2188H279.326C281.318 19.2188 283.053 19.9277 284.529 21.3457C286.006 22.752 286.744 24.3984 286.744 26.2852C286.744 28.3945 286.012 30.1582 284.547 31.5762C283.094 32.9941 281.354 33.7031 279.326 33.7031H271.697V32.4375ZM271.697 34.9688H279.326C280.885 34.9688 282.326 34.5938 283.65 33.8438C284.975 33.0938 286.029 32.0508 286.814 30.7148C287.611 29.3789 288.01 27.9023 288.01 26.2852C288.01 24.8203 287.617 23.4492 286.832 22.1719C286.047 20.8828 284.98 19.8574 283.633 19.0957C282.297 18.334 280.861 17.9531 279.326 17.9531H263.4V42H262.135V16.6875H279.326C280.65 16.6875 281.922 16.9512 283.141 17.4785C284.371 17.9941 285.432 18.6855 286.322 19.5527C287.213 20.4082 287.928 21.4277 288.467 22.6113C289.006 23.7949 289.275 25.0195 289.275 26.2852C289.275 28.3359 288.807 30.1289 287.869 31.6641C286.932 33.1875 285.672 34.3477 284.09 35.1445L286.744 42H285.391L282.877 35.6543C282.561 35.7598 282.191 35.8652 281.77 35.9707L284.143 42H282.789L280.469 36.1816C280.105 36.2168 279.725 36.2344 279.326 36.2344L281.559 42H280.223L278.008 36.2344H276.865L278.992 42H277.656L275.512 36.2344H271.697V34.9688ZM270.994 42H269.729V24.2812H279.326C279.982 24.2812 280.539 24.4805 280.996 24.8789C281.453 25.2656 281.682 25.7344 281.682 26.2852C281.682 27.8555 280.896 28.6406 279.326 28.6406H271.697V27.375H279.326C280.053 27.375 280.416 27.0117 280.416 26.2852C280.416 26.0859 280.305 25.916 280.082 25.7754C279.871 25.623 279.619 25.5469 279.326 25.5469H270.994V42ZM341.236 16.6875H342.502V42H341.236V16.6875ZM338.705 16.6875H339.971V42H338.705V16.6875ZM336.174 16.6875H337.439V42H336.174V16.6875ZM333.643 16.6875H334.908V42H333.643V16.6875ZM357.443 29.959H355.439C352.979 29.959 351.086 29.4609 349.762 28.4648C348.438 27.457 347.775 26.0742 347.775 24.3164C347.775 22.6758 348.555 21.3105 350.113 20.2207C351.672 19.1191 353.857 18.5684 356.67 18.5684C358.545 18.5684 360.291 18.8262 361.908 19.3418C363.537 19.8574 364.891 20.584 365.969 21.5215L364.984 22.3125C364.023 21.5273 362.816 20.918 361.363 20.4844C359.91 20.0508 358.346 19.834 356.67 19.834C354.197 19.834 352.305 20.2559 350.992 21.0996C349.691 21.9434 349.041 23.0156 349.041 24.3164C349.041 25.7227 349.574 26.8066 350.641 27.5684C351.719 28.3184 353.318 28.6934 355.439 28.6934H357.373C359.869 28.6934 361.779 29.1973 363.104 30.2051C364.439 31.2012 365.107 32.5781 365.107 34.3359C365.107 35.9766 364.328 37.3477 362.77 38.4492C361.211 39.5391 359.025 40.084 356.213 40.084C354.338 40.084 352.586 39.8262 350.957 39.3105C349.34 38.7949 347.992 38.0684 346.914 37.1309L347.898 36.3398C348.859 37.125 350.066 37.7344 351.52 38.168C352.973 38.6016 354.537 38.8184 356.213 38.8184C358.686 38.8184 360.572 38.3965 361.873 37.5527C363.186 36.709 363.842 35.6367 363.842 34.3359C363.842 32.9297 363.303 31.8516 362.225 31.1016C361.158 30.3398 359.564 29.959 357.443 29.959ZM357.443 32.4902H355.439C352.182 32.4902 349.668 31.752 347.898 30.2754C346.129 28.7871 345.244 26.8008 345.244 24.3164C345.244 23.1797 345.496 22.1133 346 21.1172C346.504 20.1211 347.225 19.248 348.162 18.498C349.111 17.7363 350.318 17.1387 351.783 16.7051C353.248 16.2598 354.877 16.0371 356.67 16.0371C358.932 16.0371 361.047 16.3828 363.016 17.0742C364.984 17.7539 366.625 18.709 367.938 19.9395L366.918 20.6953C365.723 19.6172 364.229 18.7852 362.436 18.1992C360.643 17.6016 358.721 17.3027 356.67 17.3027C353.506 17.3027 351.021 17.9707 349.217 19.3066C347.412 20.6426 346.51 22.3125 346.51 24.3164C346.51 26.4375 347.283 28.1191 348.83 29.3613C350.377 30.6035 352.58 31.2246 355.439 31.2246H357.373C360.842 31.2246 362.576 32.2617 362.576 34.3359C362.576 35.2734 362.043 36.0469 360.977 36.6562C359.922 37.2539 358.334 37.5527 356.213 37.5527C354.725 37.5527 353.342 37.3828 352.064 37.043C350.787 36.6914 349.732 36.1934 348.9 35.5488L349.902 34.7754C351.367 35.7832 353.471 36.2871 356.213 36.2871C357.971 36.2871 359.26 36.1055 360.08 35.7422C360.9 35.3789 361.311 34.9102 361.311 34.3359C361.311 33.668 361.023 33.1934 360.449 32.9121C359.875 32.6309 358.873 32.4902 357.443 32.4902ZM357.443 27.4277H355.439C352.018 27.4277 350.307 26.3906 350.307 24.3164C350.307 23.3789 350.834 22.6113 351.889 22.0137C352.955 21.4043 354.549 21.0996 356.67 21.0996C358.158 21.0996 359.541 21.2754 360.818 21.627C362.096 21.9668 363.15 22.459 363.982 23.1035L362.98 23.877C361.516 22.8691 359.412 22.3652 356.67 22.3652C354.912 22.3652 353.623 22.5469 352.803 22.9102C351.982 23.2734 351.572 23.7422 351.572 24.3164C351.572 24.9844 351.859 25.459 352.434 25.7402C353.008 26.0215 354.01 26.1621 355.439 26.1621H357.443C360.701 26.1621 363.215 26.9062 364.984 28.3945C366.754 29.8711 367.639 31.8516 367.639 34.3359C367.639 35.4727 367.387 36.5391 366.883 37.5352C366.379 38.5312 365.652 39.4102 364.703 40.1719C363.766 40.9219 362.564 41.5195 361.1 41.9648C359.635 42.3984 358.006 42.6152 356.213 42.6152C353.951 42.6152 351.836 42.2754 349.867 41.5957C347.898 40.9043 346.258 39.9434 344.945 38.7129L345.965 37.957C347.16 39.0352 348.654 39.873 350.447 40.4707C352.24 41.0566 354.162 41.3496 356.213 41.3496C359.377 41.3496 361.861 40.6816 363.666 39.3457C365.471 38.0098 366.373 36.3398 366.373 34.3359C366.373 32.2148 365.6 30.5332 364.053 29.291C362.506 28.0488 360.303 27.4277 357.443 27.4277ZM390.385 31.7871L389.119 29.4844V16.6875H390.385V31.7871ZM392.916 36.1641L391.65 34.0195V16.6875H392.916V36.1641ZM375.479 26.9004L376.744 29.2031V42H375.479V26.9004ZM372.947 22.3477L374.213 24.668V42H372.947V22.3477ZM373.387 16.6875H374.863L389.523 42H388.047L373.387 16.6875ZM376.375 16.6875H377.869L392.512 42H391L376.375 16.6875ZM379.346 16.6875H380.822L394.182 39.8027V16.6875H395.447V42H393.953L379.346 16.6875ZM371.682 18.8672V42H370.416V16.6875H371.928L386.535 42H385.076L371.682 18.8672ZM416.717 29.5195C416.717 28.0195 416.254 26.8594 415.328 26.0391C414.402 25.2188 413.178 24.8086 411.654 24.8086C410.365 24.8086 409.258 25.2539 408.332 26.1445C407.406 27.0352 406.943 28.1016 406.943 29.3438C406.943 30.0469 407.037 30.6797 407.225 31.2422C407.412 31.793 407.664 32.2559 407.98 32.6309C408.309 32.9941 408.695 33.2988 409.141 33.5449C409.586 33.7793 410.049 33.9492 410.529 34.0547C411.021 34.1602 411.543 34.2129 412.094 34.2129C413.43 34.2129 414.648 33.8848 415.75 33.2285V34.4941C414.613 35.0918 413.389 35.3906 412.076 35.3906C411.232 35.3906 410.436 35.2793 409.686 35.0566C408.947 34.8223 408.273 34.4766 407.664 34.0195C407.055 33.5508 406.568 32.918 406.205 32.1211C405.854 31.3125 405.678 30.3867 405.678 29.3438C405.678 27.7266 406.246 26.3555 407.383 25.2305C408.52 24.1055 409.943 23.543 411.654 23.543C413.541 23.543 415.064 24.0762 416.225 25.1426C417.396 26.1973 417.982 27.6562 417.982 29.5195V42H416.717V29.5195ZM420.514 29.5195V42H419.248V29.5195C419.248 27.3047 418.539 25.5469 417.121 24.2461C415.703 22.9336 413.881 22.2773 411.654 22.2773C409.592 22.2773 407.869 22.9629 406.486 24.334C405.104 25.7051 404.412 27.375 404.412 29.3438C404.412 30.5391 404.617 31.6113 405.027 32.5605C405.449 33.5098 406.018 34.2715 406.732 34.8457C407.447 35.4199 408.244 35.8594 409.123 36.1641C410.014 36.457 410.951 36.6035 411.936 36.6035C413.271 36.6035 414.543 36.293 415.75 35.6719V37.0078C414.484 37.5352 413.207 37.7988 411.918 37.7988C410.758 37.7988 409.656 37.623 408.613 37.2715C407.57 36.9082 406.639 36.3867 405.818 35.707C404.998 35.0156 404.348 34.125 403.867 33.0352C403.387 31.9336 403.146 30.7031 403.146 29.3438C403.146 27.0352 403.961 25.0723 405.59 23.4551C407.23 21.8262 409.252 21.0117 411.654 21.0117C413.342 21.0117 414.854 21.3574 416.189 22.0488C417.525 22.7285 418.58 23.7188 419.354 25.0195C420.127 26.3203 420.514 27.8203 420.514 29.5195ZM423.045 29.5195V42H421.779V29.5195C421.779 27.5859 421.334 25.875 420.443 24.3867C419.564 22.8867 418.357 21.7383 416.822 20.9414C415.287 20.1445 413.564 19.7461 411.654 19.7461C409.838 19.7461 408.18 20.1797 406.68 21.0469C405.18 21.9023 404.002 23.0625 403.146 24.5273C402.303 25.9922 401.881 27.5977 401.881 29.3438C401.881 30.8438 402.156 32.2148 402.707 33.457C403.258 34.6875 403.996 35.7012 404.922 36.498C405.859 37.2949 406.92 37.916 408.104 38.3613C409.299 38.7949 410.547 39.0117 411.848 39.0117C413.172 39.0117 414.473 38.7363 415.75 38.1855V39.4688C414.414 39.9727 413.102 40.2246 411.812 40.2246C409.785 40.2246 407.922 39.7676 406.223 38.8535C404.523 37.9395 403.164 36.6445 402.145 34.9688C401.125 33.293 400.615 31.418 400.615 29.3438C400.615 27.8672 400.896 26.4609 401.459 25.125C402.033 23.7891 402.807 22.6348 403.779 21.6621C404.752 20.6895 405.924 19.916 407.295 19.3418C408.666 18.7676 410.119 18.4805 411.654 18.4805C413.799 18.4805 415.732 18.9375 417.455 19.8516C419.189 20.7656 420.555 22.0664 421.551 23.7539C422.547 25.4414 423.045 27.3633 423.045 29.5195ZM425.576 29.5195V42H424.311V29.5195C424.311 27.1289 423.754 24.9961 422.641 23.1211C421.527 21.2344 420.01 19.7812 418.088 18.7617C416.166 17.7305 414.021 17.2148 411.654 17.2148C409.381 17.2148 407.301 17.7598 405.414 18.8496C403.527 19.9395 402.045 21.416 400.967 23.2793C399.889 25.1309 399.35 27.1523 399.35 29.3438C399.35 30.7852 399.578 32.1562 400.035 33.457C400.504 34.7461 401.137 35.877 401.934 36.8496C402.742 37.8105 403.668 38.6426 404.711 39.3457C405.766 40.0488 406.896 40.582 408.104 40.9453C409.322 41.3086 410.559 41.4902 411.812 41.4902C413.195 41.4902 414.508 41.2266 415.75 40.6992V42C414.449 42.457 413.113 42.6855 411.742 42.6855C410.324 42.6855 408.941 42.4863 407.594 42.0879C406.258 41.6895 405.016 41.1035 403.867 40.3301C402.73 39.5449 401.729 38.625 400.861 37.5703C399.994 36.5039 399.314 35.2617 398.822 33.8438C398.33 32.4258 398.084 30.9258 398.084 29.3438C398.084 27.5273 398.424 25.7988 399.104 24.1582C399.795 22.5059 400.732 21.082 401.916 19.8867C403.111 18.6797 404.553 17.7246 406.24 17.0215C407.939 16.3066 409.744 15.9492 411.654 15.9492C413.6 15.9492 415.428 16.2773 417.139 16.9336C418.85 17.5898 420.326 18.5039 421.568 19.6758C422.811 20.8359 423.789 22.2656 424.504 23.9648C425.219 25.6641 425.576 27.5156 425.576 29.5195ZM433.188 23.7012H434.453V42H433.188V23.7012ZM428.125 17.9531V16.6875H447.109V17.9531H428.125ZM428.125 20.4844V19.2188H447.109V20.4844H428.125ZM428.125 23.0156V21.75H447.109V23.0156H428.125ZM440.781 23.7012H442.047V42H440.781V23.7012ZM438.25 23.7012H439.516V42H438.25V23.7012ZM435.719 23.7012H436.984V42H435.719V23.7012ZM475.234 16.6875H476.5V42H475.234V16.6875ZM449.904 16.6875H451.17V42H449.904V16.6875ZM472.703 16.6875H473.969V42H472.703V16.6875ZM470.172 16.6875H471.438V42H470.172V16.6875ZM467.641 16.6875H468.906V42H467.641V31.875H458.764V42H457.498V16.6875H458.764V25.5469H467.641V16.6875ZM454.967 16.6875H456.232V42H454.967V16.6875ZM452.436 16.6875H453.701V42H452.436V16.6875ZM467.641 30.6094V29.3438H458.764V30.6094H467.641ZM467.641 28.0781V26.8125H458.764V28.0781H467.641Z" fill="#3F3D3D"/>
</g>
<defs>
<filter id="filter0_dd_7_23" x="0.966797" y="15.4219" width="479.533" height="35.8438" filterUnits="userSpaceOnUse" color-interpolation-filters="sRGB">
<feFlood flood-opacity="0" result="BackgroundImageFix"/>
<feColorMatrix in="SourceAlpha" type="matrix" values="0 0 0 0 0 0 0 0 0 0 0 0 0 0 0 0 0 0 127 0" result="hardAlpha"/>
<feOffset dy="4"/>
<feGaussianBlur stdDeviation="2"/>
<feComposite in2="hardAlpha" operator="out"/>
<feColorMatrix type="matrix" values="0 0 0 0 0 0 0 0 0 0 0 0 0 0 0 0 0 0 0.25 0"/>
<feBlend mode="normal" in2="BackgroundImageFix" result="effect1_dropShadow_7_23"/>
<feColorMatrix in="SourceAlpha" type="matrix" values="0 0 0 0 0 0 0 0 0 0 0 0 0 0 0 0 0 0 127 0" result="hardAlpha"/>
<feOffset dy="4"/>
<feGaussianBlur stdDeviation="2"/>
<feComposite in2="hardAlpha" operator="out"/>
<feColorMatrix type="matrix" values="0 0 0 0 0 0 0 0 0 0 0 0 0 0 0 0 0 0 0.25 0"/>
<feBlend mode="normal" in2="effect1_dropShadow_7_23" result="effect2_dropShadow_7_23"/>
<feBlend mode="normal" in="SourceGraphic" in2="effect2_dropShadow_7_23" result="shape"/>
</filter>
</defs>
</svg>
